G04 #@! TF.GenerationSoftware,KiCad,Pcbnew,(6.0.2)*
G04 #@! TF.CreationDate,2022-03-11T19:19:16+08:00*
G04 #@! TF.ProjectId,test,74657374-2e6b-4696-9361-645f70636258,rev?*
G04 #@! TF.SameCoordinates,Original*
G04 #@! TF.FileFunction,Soldermask,Bot*
G04 #@! TF.FilePolarity,Negative*
%FSLAX46Y46*%
G04 Gerber Fmt 4.6, Leading zero omitted, Abs format (unit mm)*
G04 Created by KiCad (PCBNEW (6.0.2)) date 2022-03-11 19:19:16*
%MOMM*%
%LPD*%
G01*
G04 APERTURE LIST*
%ADD10O,2.300000X4.000000*%
%ADD11C,1.800000*%
%ADD12R,1.600000X1.600000*%
%ADD13C,1.600000*%
%ADD14C,3.000000*%
%ADD15C,1.850000*%
%ADD16C,4.000000*%
%ADD17R,1.778000X0.889000*%
%ADD18R,1.410000X1.350000*%
%ADD19R,2.540000X2.540000*%
%ADD20R,1.150000X0.950000*%
G04 APERTURE END LIST*
D10*
X30900000Y30350000D03*
X19900000Y30350000D03*
D11*
X22860000Y22850000D03*
X27940000Y22850000D03*
X25400000Y22850000D03*
X22860000Y37350000D03*
X27940000Y37350000D03*
D12*
X40000000Y98700000D03*
D13*
X40000000Y96160000D03*
X40000000Y93620000D03*
X40000000Y91080000D03*
X40000000Y88540000D03*
X40000000Y86000000D03*
X40000000Y83460000D03*
X40000000Y80920000D03*
X40000000Y78380000D03*
X40000000Y75840000D03*
X40000000Y73300000D03*
X40000000Y70760000D03*
X42540000Y70760000D03*
X45080000Y70760000D03*
X47620000Y70760000D03*
X50160000Y70760000D03*
X52700000Y70760000D03*
X55240000Y70760000D03*
X55240000Y73300000D03*
X55240000Y75840000D03*
X55240000Y78380000D03*
X55240000Y80920000D03*
X55240000Y83460000D03*
X55240000Y86000000D03*
X55240000Y88540000D03*
X55240000Y91080000D03*
X55240000Y93620000D03*
X55240000Y96160000D03*
X55240000Y98700000D03*
X42540000Y88540000D03*
X52700000Y88540000D03*
D10*
X31800000Y52550000D03*
X20800000Y52550000D03*
D11*
X23760000Y45050000D03*
X28840000Y45050000D03*
X26300000Y45050000D03*
X23760000Y59550000D03*
X28840000Y59550000D03*
D14*
X48660000Y47020000D03*
D15*
X56280000Y52100000D03*
D14*
X55010000Y49560000D03*
D15*
X46120000Y52100000D03*
D16*
X51200000Y52100000D03*
D17*
X48429000Y57919000D03*
D18*
X45850000Y57919000D03*
D17*
X48429000Y56441000D03*
D19*
X44850000Y47020000D03*
D20*
X58820000Y55595000D03*
D17*
X53971000Y56441000D03*
D18*
X43790000Y57919000D03*
D17*
X53971000Y57919000D03*
D19*
X58820000Y49560000D03*
D20*
X58820000Y52211000D03*
D16*
X50700000Y29700000D03*
D14*
X48160000Y24620000D03*
D15*
X45620000Y29700000D03*
D14*
X54510000Y27160000D03*
D15*
X55780000Y29700000D03*
D18*
X45350000Y35519000D03*
D17*
X47929000Y35519000D03*
X47929000Y34041000D03*
D19*
X44350000Y24620000D03*
D20*
X58320000Y33195000D03*
D17*
X53471000Y34041000D03*
D18*
X43290000Y35519000D03*
D17*
X53471000Y35519000D03*
D19*
X58320000Y27160000D03*
D20*
X58320000Y29811000D03*
M02*
