G04 #@! TF.GenerationSoftware,KiCad,Pcbnew,(6.0.2)*
G04 #@! TF.CreationDate,2022-03-11T19:19:16+08:00*
G04 #@! TF.ProjectId,test,74657374-2e6b-4696-9361-645f70636258,rev?*
G04 #@! TF.SameCoordinates,Original*
G04 #@! TF.FileFunction,Legend,Bot*
G04 #@! TF.FilePolarity,Positive*
%FSLAX46Y46*%
G04 Gerber Fmt 4.6, Leading zero omitted, Abs format (unit mm)*
G04 Created by KiCad (PCBNEW (6.0.2)) date 2022-03-11 19:19:16*
%MOMM*%
%LPD*%
G01*
G04 APERTURE LIST*
%ADD10C,0.152000*%
%ADD11C,0.254000*%
%ADD12C,0.400000*%
G04 APERTURE END LIST*
D10*
X44419000Y57015000D02*
X43009000Y57015000D01*
D11*
X55518000Y45242000D02*
X46374000Y45242000D01*
X53689000Y51262000D02*
X57296000Y51262000D01*
D10*
X42856000Y57168000D02*
X42856000Y58670000D01*
X58020000Y57003000D02*
X59720000Y57003000D01*
D11*
X57296000Y51262000D02*
X57296000Y47020000D01*
D12*
X58100000Y56503000D02*
X59620000Y56503000D01*
D11*
X46374000Y49306000D02*
X51606000Y49306000D01*
D10*
X45221000Y57015000D02*
X46631000Y57015000D01*
X46631000Y58823000D02*
X45221000Y58823000D01*
X46784000Y57168000D02*
X46784000Y58670000D01*
X43009000Y58823000D02*
X44419000Y58823000D01*
D11*
X46374000Y49306000D02*
X46374000Y45242000D01*
D10*
X57954000Y51397000D02*
X59762000Y51397000D01*
X59762000Y51397000D02*
X59762000Y56503000D01*
X59762000Y56503000D02*
X57954000Y56503000D01*
X57954000Y56503000D02*
X57954000Y51397000D01*
X47200000Y59100000D02*
X55200000Y59100000D01*
X55200000Y59100000D02*
X55200000Y55200000D01*
X55200000Y55200000D02*
X47200000Y55200000D01*
X47200000Y55200000D02*
X47200000Y59100000D01*
X46784000Y58670000D02*
G75*
G03*
X46631000Y58823000I-153001J-1D01*
G01*
D11*
X55518792Y45241996D02*
G75*
G03*
X57296000Y47020000I8862J1768350D01*
G01*
D10*
X46631000Y57015000D02*
G75*
G03*
X46784000Y57168000I-1J153001D01*
G01*
D11*
X51606527Y49306987D02*
G75*
G03*
X53689000Y51262000I-119590J2214015D01*
G01*
D10*
X42856000Y57168000D02*
G75*
G03*
X43009000Y57015000I153001J1D01*
G01*
X43009000Y58823000D02*
G75*
G03*
X42856000Y58670000I1J-153001D01*
G01*
X56100000Y54500000D02*
X55300000Y54500000D01*
X55300000Y54500000D02*
X56100000Y55300000D01*
X56100000Y55300000D02*
X56100000Y54500000D01*
G36*
X56100000Y54500000D02*
G01*
X55300000Y54500000D01*
X56100000Y55300000D01*
X56100000Y54500000D01*
G37*
X56100000Y54500000D02*
X55300000Y54500000D01*
X56100000Y55300000D01*
X56100000Y54500000D01*
X57520000Y34603000D02*
X59220000Y34603000D01*
X46284000Y34768000D02*
X46284000Y36270000D01*
X44721000Y34615000D02*
X46131000Y34615000D01*
X46131000Y36423000D02*
X44721000Y36423000D01*
D11*
X55018000Y22842000D02*
X45874000Y22842000D01*
X45874000Y26906000D02*
X51106000Y26906000D01*
D10*
X42509000Y36423000D02*
X43919000Y36423000D01*
X42356000Y34768000D02*
X42356000Y36270000D01*
D11*
X53189000Y28862000D02*
X56796000Y28862000D01*
D10*
X43919000Y34615000D02*
X42509000Y34615000D01*
D11*
X45874000Y26906000D02*
X45874000Y22842000D01*
X56796000Y28862000D02*
X56796000Y24620000D01*
D12*
X57600000Y34103000D02*
X59120000Y34103000D01*
D10*
X46700000Y36700000D02*
X54700000Y36700000D01*
X54700000Y36700000D02*
X54700000Y32800000D01*
X54700000Y32800000D02*
X46700000Y32800000D01*
X46700000Y32800000D02*
X46700000Y36700000D01*
X57454000Y28997000D02*
X59262000Y28997000D01*
X59262000Y28997000D02*
X59262000Y34103000D01*
X59262000Y34103000D02*
X57454000Y34103000D01*
X57454000Y34103000D02*
X57454000Y28997000D01*
D11*
X51106527Y26906987D02*
G75*
G03*
X53189000Y28862000I-119590J2214015D01*
G01*
X55018792Y22841996D02*
G75*
G03*
X56796000Y24620000I8862J1768350D01*
G01*
D10*
X46131000Y34615000D02*
G75*
G03*
X46284000Y34768000I-1J153001D01*
G01*
X46284000Y36270000D02*
G75*
G03*
X46131000Y36423000I-153001J-1D01*
G01*
X42509000Y36423000D02*
G75*
G03*
X42356000Y36270000I1J-153001D01*
G01*
X42356000Y34768000D02*
G75*
G03*
X42509000Y34615000I153001J1D01*
G01*
X55600000Y32100000D02*
X54800000Y32100000D01*
X54800000Y32100000D02*
X55600000Y32900000D01*
X55600000Y32900000D02*
X55600000Y32100000D01*
G36*
X55600000Y32100000D02*
G01*
X54800000Y32100000D01*
X55600000Y32900000D01*
X55600000Y32100000D01*
G37*
X55600000Y32100000D02*
X54800000Y32100000D01*
X55600000Y32900000D01*
X55600000Y32100000D01*
M02*
