%FSLAX45Y45*%
G04 Gerber Fmt 4.5, Leading zero omitted, Abs format (unit mm)*
G04 Created by KiCad (PCBNEW (6.0.2)) date 2022-03-11 19:19:30*
%MOMM*%
%LPD*%
G01*
G04 APERTURE LIST*
%TA.AperFunction,Profile*%
%ADD10C,0.100000*%
%TD*%
%ADD11C,0.200000*%
%ADD12C,0.110000*%
%ADD13C,0.130000*%
%ADD14C,0.150000*%
%ADD15C,0.185000*%
%ADD16C,0.300000*%
%ADD17C,0.400000*%
G04 APERTURE END LIST*
D10*
X3620000Y700000D02*
G75*
G03*
X3620000Y700000I-120000J0D01*
G01*
X9020000Y700000D02*
G75*
G03*
X9020000Y700000I-120000J0D01*
G01*
X6550000Y9600000D02*
G75*
G03*
X6550000Y9600000I-150000J0D01*
G01*
X9560000Y4150000D02*
G75*
G03*
X9560000Y4150000I-160000J0D01*
G01*
X2550000Y9600000D02*
G75*
G03*
X2550000Y9600000I-150000J0D01*
G01*
X2960000Y9600000D02*
G75*
G03*
X2960000Y9600000I-160000J0D01*
G01*
X9120000Y9600000D02*
G75*
G03*
X9120000Y9600000I-120000J0D01*
G01*
X770000Y3950000D02*
G75*
G03*
X770000Y3950000I-170000J0D01*
G01*
X7370000Y9600000D02*
G75*
G03*
X7370000Y9600000I-170000J0D01*
G01*
X9500000Y5550000D02*
G75*
G03*
X9500000Y5550000I-100000J0D01*
G01*
X1050000Y700000D02*
G75*
G03*
X1050000Y700000I-150000J0D01*
G01*
X750000Y3150000D02*
G75*
G03*
X750000Y3150000I-150000J0D01*
G01*
X720000Y5750000D02*
G75*
G03*
X720000Y5750000I-120000J0D01*
G01*
X9550000Y3750000D02*
G75*
G03*
X9550000Y3750000I-150000J0D01*
G01*
X9510000Y5950000D02*
G75*
G03*
X9510000Y5950000I-110000J0D01*
G01*
X6960000Y9600000D02*
G75*
G03*
X6960000Y9600000I-160000J0D01*
G01*
X760000Y3550000D02*
G75*
G03*
X760000Y3550000I-160000J0D01*
G01*
X7270000Y700000D02*
G75*
G03*
X7270000Y700000I-170000J0D01*
G01*
X1520000Y9600000D02*
G75*
G03*
X1520000Y9600000I-120000J0D01*
G01*
X0Y0D02*
X10000000Y0D01*
X10000000Y0D02*
X10000000Y10000000D01*
X10000000Y10000000D02*
X0Y10000000D01*
X0Y10000000D02*
X0Y0D01*
X6860000Y700000D02*
G75*
G03*
X6860000Y700000I-160000J0D01*
G01*
X700000Y4950000D02*
G75*
G03*
X700000Y4950000I-100000J0D01*
G01*
X8710000Y9600000D02*
G75*
G03*
X8710000Y9600000I-110000J0D01*
G01*
X1870000Y700000D02*
G75*
G03*
X1870000Y700000I-170000J0D01*
G01*
X1460000Y700000D02*
G75*
G03*
X1460000Y700000I-160000J0D01*
G01*
X2800000Y700000D02*
G75*
G03*
X2800000Y700000I-100000J0D01*
G01*
X9520000Y6350000D02*
G75*
G03*
X9520000Y6350000I-120000J0D01*
G01*
X6450000Y700000D02*
G75*
G03*
X6450000Y700000I-150000J0D01*
G01*
X8610000Y700000D02*
G75*
G03*
X8610000Y700000I-110000J0D01*
G01*
X8300000Y9600000D02*
G75*
G03*
X8300000Y9600000I-100000J0D01*
G01*
X9570000Y4550000D02*
G75*
G03*
X9570000Y4550000I-170000J0D01*
G01*
X3210000Y700000D02*
G75*
G03*
X3210000Y700000I-110000J0D01*
G01*
X1110000Y9600000D02*
G75*
G03*
X1110000Y9600000I-110000J0D01*
G01*
X8200000Y700000D02*
G75*
G03*
X8200000Y700000I-100000J0D01*
G01*
X700000Y9600000D02*
G75*
G03*
X700000Y9600000I-100000J0D01*
G01*
X710000Y5350000D02*
G75*
G03*
X710000Y5350000I-110000J0D01*
G01*
X3370000Y9600000D02*
G75*
G03*
X3370000Y9600000I-170000J0D01*
G01*
D11*
D12*
X3945000Y9925000D02*
X4055000Y9815000D01*
X4055000Y9925000D02*
X3945000Y9815000D01*
D11*
X4000000Y9915000D02*
X4000000Y9915000D01*
X4000000Y9825000D02*
X4000000Y9825000D01*
X4000000Y9915000D02*
G75*
G03*
X4000000Y9825000I0J-45000D01*
G01*
X4000000Y9825000D02*
G75*
G03*
X4000000Y9915000I0J45000D01*
G01*
D12*
X3945000Y9671000D02*
X4055000Y9561000D01*
X4055000Y9671000D02*
X3945000Y9561000D01*
D11*
X4000000Y9661000D02*
X4000000Y9661000D01*
X4000000Y9571000D02*
X4000000Y9571000D01*
X4000000Y9661000D02*
G75*
G03*
X4000000Y9571000I0J-45000D01*
G01*
X4000000Y9571000D02*
G75*
G03*
X4000000Y9661000I0J45000D01*
G01*
D12*
X3945000Y9417000D02*
X4055000Y9307000D01*
X4055000Y9417000D02*
X3945000Y9307000D01*
D11*
X4000000Y9407000D02*
X4000000Y9407000D01*
X4000000Y9317000D02*
X4000000Y9317000D01*
X4000000Y9407000D02*
G75*
G03*
X4000000Y9317000I0J-45000D01*
G01*
X4000000Y9317000D02*
G75*
G03*
X4000000Y9407000I0J45000D01*
G01*
D12*
X3945000Y9163000D02*
X4055000Y9053000D01*
X4055000Y9163000D02*
X3945000Y9053000D01*
D11*
X4000000Y9153000D02*
X4000000Y9153000D01*
X4000000Y9063000D02*
X4000000Y9063000D01*
X4000000Y9153000D02*
G75*
G03*
X4000000Y9063000I0J-45000D01*
G01*
X4000000Y9063000D02*
G75*
G03*
X4000000Y9153000I0J45000D01*
G01*
D12*
X3945000Y8909000D02*
X4055000Y8799000D01*
X4055000Y8909000D02*
X3945000Y8799000D01*
D11*
X4000000Y8899000D02*
X4000000Y8899000D01*
X4000000Y8809000D02*
X4000000Y8809000D01*
X4000000Y8899000D02*
G75*
G03*
X4000000Y8809000I0J-45000D01*
G01*
X4000000Y8809000D02*
G75*
G03*
X4000000Y8899000I0J45000D01*
G01*
D12*
X3945000Y8655000D02*
X4055000Y8545000D01*
X4055000Y8655000D02*
X3945000Y8545000D01*
D11*
X4000000Y8645000D02*
X4000000Y8645000D01*
X4000000Y8555000D02*
X4000000Y8555000D01*
X4000000Y8645000D02*
G75*
G03*
X4000000Y8555000I0J-45000D01*
G01*
X4000000Y8555000D02*
G75*
G03*
X4000000Y8645000I0J45000D01*
G01*
D12*
X3945000Y8401000D02*
X4055000Y8291000D01*
X4055000Y8401000D02*
X3945000Y8291000D01*
D11*
X4000000Y8391000D02*
X4000000Y8391000D01*
X4000000Y8301000D02*
X4000000Y8301000D01*
X4000000Y8391000D02*
G75*
G03*
X4000000Y8301000I0J-45000D01*
G01*
X4000000Y8301000D02*
G75*
G03*
X4000000Y8391000I0J45000D01*
G01*
D12*
X3945000Y8147000D02*
X4055000Y8037000D01*
X4055000Y8147000D02*
X3945000Y8037000D01*
D11*
X4000000Y8137000D02*
X4000000Y8137000D01*
X4000000Y8047000D02*
X4000000Y8047000D01*
X4000000Y8137000D02*
G75*
G03*
X4000000Y8047000I0J-45000D01*
G01*
X4000000Y8047000D02*
G75*
G03*
X4000000Y8137000I0J45000D01*
G01*
D12*
X3945000Y7893000D02*
X4055000Y7783000D01*
X4055000Y7893000D02*
X3945000Y7783000D01*
D11*
X4000000Y7883000D02*
X4000000Y7883000D01*
X4000000Y7793000D02*
X4000000Y7793000D01*
X4000000Y7883000D02*
G75*
G03*
X4000000Y7793000I0J-45000D01*
G01*
X4000000Y7793000D02*
G75*
G03*
X4000000Y7883000I0J45000D01*
G01*
D12*
X3945000Y7639000D02*
X4055000Y7529000D01*
X4055000Y7639000D02*
X3945000Y7529000D01*
D11*
X4000000Y7629000D02*
X4000000Y7629000D01*
X4000000Y7539000D02*
X4000000Y7539000D01*
X4000000Y7629000D02*
G75*
G03*
X4000000Y7539000I0J-45000D01*
G01*
X4000000Y7539000D02*
G75*
G03*
X4000000Y7629000I0J45000D01*
G01*
D12*
X3945000Y7385000D02*
X4055000Y7275000D01*
X4055000Y7385000D02*
X3945000Y7275000D01*
D11*
X4000000Y7375000D02*
X4000000Y7375000D01*
X4000000Y7285000D02*
X4000000Y7285000D01*
X4000000Y7375000D02*
G75*
G03*
X4000000Y7285000I0J-45000D01*
G01*
X4000000Y7285000D02*
G75*
G03*
X4000000Y7375000I0J45000D01*
G01*
D12*
X3945000Y7131000D02*
X4055000Y7021000D01*
X4055000Y7131000D02*
X3945000Y7021000D01*
D11*
X4000000Y7121000D02*
X4000000Y7121000D01*
X4000000Y7031000D02*
X4000000Y7031000D01*
X4000000Y7121000D02*
G75*
G03*
X4000000Y7031000I0J-45000D01*
G01*
X4000000Y7031000D02*
G75*
G03*
X4000000Y7121000I0J45000D01*
G01*
D12*
X4199000Y8909000D02*
X4309000Y8799000D01*
X4309000Y8909000D02*
X4199000Y8799000D01*
D11*
X4254000Y8899000D02*
X4254000Y8899000D01*
X4254000Y8809000D02*
X4254000Y8809000D01*
X4254000Y8899000D02*
G75*
G03*
X4254000Y8809000I0J-45000D01*
G01*
X4254000Y8809000D02*
G75*
G03*
X4254000Y8899000I0J45000D01*
G01*
D12*
X4199000Y7131000D02*
X4309000Y7021000D01*
X4309000Y7131000D02*
X4199000Y7021000D01*
D11*
X4254000Y7121000D02*
X4254000Y7121000D01*
X4254000Y7031000D02*
X4254000Y7031000D01*
X4254000Y7121000D02*
G75*
G03*
X4254000Y7031000I0J-45000D01*
G01*
X4254000Y7031000D02*
G75*
G03*
X4254000Y7121000I0J45000D01*
G01*
D12*
X4453000Y7131000D02*
X4563000Y7021000D01*
X4563000Y7131000D02*
X4453000Y7021000D01*
D11*
X4508000Y7121000D02*
X4508000Y7121000D01*
X4508000Y7031000D02*
X4508000Y7031000D01*
X4508000Y7121000D02*
G75*
G03*
X4508000Y7031000I0J-45000D01*
G01*
X4508000Y7031000D02*
G75*
G03*
X4508000Y7121000I0J45000D01*
G01*
D12*
X4707000Y7131000D02*
X4817000Y7021000D01*
X4817000Y7131000D02*
X4707000Y7021000D01*
D11*
X4762000Y7121000D02*
X4762000Y7121000D01*
X4762000Y7031000D02*
X4762000Y7031000D01*
X4762000Y7121000D02*
G75*
G03*
X4762000Y7031000I0J-45000D01*
G01*
X4762000Y7031000D02*
G75*
G03*
X4762000Y7121000I0J45000D01*
G01*
D12*
X4961000Y7131000D02*
X5071000Y7021000D01*
X5071000Y7131000D02*
X4961000Y7021000D01*
D11*
X5016000Y7121000D02*
X5016000Y7121000D01*
X5016000Y7031000D02*
X5016000Y7031000D01*
X5016000Y7121000D02*
G75*
G03*
X5016000Y7031000I0J-45000D01*
G01*
X5016000Y7031000D02*
G75*
G03*
X5016000Y7121000I0J45000D01*
G01*
D12*
X5215000Y8909000D02*
X5325000Y8799000D01*
X5325000Y8909000D02*
X5215000Y8799000D01*
D11*
X5270000Y8899000D02*
X5270000Y8899000D01*
X5270000Y8809000D02*
X5270000Y8809000D01*
X5270000Y8899000D02*
G75*
G03*
X5270000Y8809000I0J-45000D01*
G01*
X5270000Y8809000D02*
G75*
G03*
X5270000Y8899000I0J45000D01*
G01*
D12*
X5215000Y7131000D02*
X5325000Y7021000D01*
X5325000Y7131000D02*
X5215000Y7021000D01*
D11*
X5270000Y7121000D02*
X5270000Y7121000D01*
X5270000Y7031000D02*
X5270000Y7031000D01*
X5270000Y7121000D02*
G75*
G03*
X5270000Y7031000I0J-45000D01*
G01*
X5270000Y7031000D02*
G75*
G03*
X5270000Y7121000I0J45000D01*
G01*
D12*
X5469000Y9925000D02*
X5579000Y9815000D01*
X5579000Y9925000D02*
X5469000Y9815000D01*
D11*
X5524000Y9915000D02*
X5524000Y9915000D01*
X5524000Y9825000D02*
X5524000Y9825000D01*
X5524000Y9915000D02*
G75*
G03*
X5524000Y9825000I0J-45000D01*
G01*
X5524000Y9825000D02*
G75*
G03*
X5524000Y9915000I0J45000D01*
G01*
D12*
X5469000Y9671000D02*
X5579000Y9561000D01*
X5579000Y9671000D02*
X5469000Y9561000D01*
D11*
X5524000Y9661000D02*
X5524000Y9661000D01*
X5524000Y9571000D02*
X5524000Y9571000D01*
X5524000Y9661000D02*
G75*
G03*
X5524000Y9571000I0J-45000D01*
G01*
X5524000Y9571000D02*
G75*
G03*
X5524000Y9661000I0J45000D01*
G01*
D12*
X5469000Y9417000D02*
X5579000Y9307000D01*
X5579000Y9417000D02*
X5469000Y9307000D01*
D11*
X5524000Y9407000D02*
X5524000Y9407000D01*
X5524000Y9317000D02*
X5524000Y9317000D01*
X5524000Y9407000D02*
G75*
G03*
X5524000Y9317000I0J-45000D01*
G01*
X5524000Y9317000D02*
G75*
G03*
X5524000Y9407000I0J45000D01*
G01*
D12*
X5469000Y9163000D02*
X5579000Y9053000D01*
X5579000Y9163000D02*
X5469000Y9053000D01*
D11*
X5524000Y9153000D02*
X5524000Y9153000D01*
X5524000Y9063000D02*
X5524000Y9063000D01*
X5524000Y9153000D02*
G75*
G03*
X5524000Y9063000I0J-45000D01*
G01*
X5524000Y9063000D02*
G75*
G03*
X5524000Y9153000I0J45000D01*
G01*
D12*
X5469000Y8909000D02*
X5579000Y8799000D01*
X5579000Y8909000D02*
X5469000Y8799000D01*
D11*
X5524000Y8899000D02*
X5524000Y8899000D01*
X5524000Y8809000D02*
X5524000Y8809000D01*
X5524000Y8899000D02*
G75*
G03*
X5524000Y8809000I0J-45000D01*
G01*
X5524000Y8809000D02*
G75*
G03*
X5524000Y8899000I0J45000D01*
G01*
D12*
X5469000Y8655000D02*
X5579000Y8545000D01*
X5579000Y8655000D02*
X5469000Y8545000D01*
D11*
X5524000Y8645000D02*
X5524000Y8645000D01*
X5524000Y8555000D02*
X5524000Y8555000D01*
X5524000Y8645000D02*
G75*
G03*
X5524000Y8555000I0J-45000D01*
G01*
X5524000Y8555000D02*
G75*
G03*
X5524000Y8645000I0J45000D01*
G01*
D12*
X5469000Y8401000D02*
X5579000Y8291000D01*
X5579000Y8401000D02*
X5469000Y8291000D01*
D11*
X5524000Y8391000D02*
X5524000Y8391000D01*
X5524000Y8301000D02*
X5524000Y8301000D01*
X5524000Y8391000D02*
G75*
G03*
X5524000Y8301000I0J-45000D01*
G01*
X5524000Y8301000D02*
G75*
G03*
X5524000Y8391000I0J45000D01*
G01*
D12*
X5469000Y8147000D02*
X5579000Y8037000D01*
X5579000Y8147000D02*
X5469000Y8037000D01*
D11*
X5524000Y8137000D02*
X5524000Y8137000D01*
X5524000Y8047000D02*
X5524000Y8047000D01*
X5524000Y8137000D02*
G75*
G03*
X5524000Y8047000I0J-45000D01*
G01*
X5524000Y8047000D02*
G75*
G03*
X5524000Y8137000I0J45000D01*
G01*
D12*
X5469000Y7893000D02*
X5579000Y7783000D01*
X5579000Y7893000D02*
X5469000Y7783000D01*
D11*
X5524000Y7883000D02*
X5524000Y7883000D01*
X5524000Y7793000D02*
X5524000Y7793000D01*
X5524000Y7883000D02*
G75*
G03*
X5524000Y7793000I0J-45000D01*
G01*
X5524000Y7793000D02*
G75*
G03*
X5524000Y7883000I0J45000D01*
G01*
D12*
X5469000Y7639000D02*
X5579000Y7529000D01*
X5579000Y7639000D02*
X5469000Y7529000D01*
D11*
X5524000Y7629000D02*
X5524000Y7629000D01*
X5524000Y7539000D02*
X5524000Y7539000D01*
X5524000Y7629000D02*
G75*
G03*
X5524000Y7539000I0J-45000D01*
G01*
X5524000Y7539000D02*
G75*
G03*
X5524000Y7629000I0J45000D01*
G01*
D12*
X5469000Y7385000D02*
X5579000Y7275000D01*
X5579000Y7385000D02*
X5469000Y7275000D01*
D11*
X5524000Y7375000D02*
X5524000Y7375000D01*
X5524000Y7285000D02*
X5524000Y7285000D01*
X5524000Y7375000D02*
G75*
G03*
X5524000Y7285000I0J-45000D01*
G01*
X5524000Y7285000D02*
G75*
G03*
X5524000Y7375000I0J45000D01*
G01*
D12*
X5469000Y7131000D02*
X5579000Y7021000D01*
X5579000Y7131000D02*
X5469000Y7021000D01*
D11*
X5524000Y7121000D02*
X5524000Y7121000D01*
X5524000Y7031000D02*
X5524000Y7031000D01*
X5524000Y7121000D02*
G75*
G03*
X5524000Y7031000I0J-45000D01*
G01*
X5524000Y7031000D02*
G75*
G03*
X5524000Y7121000I0J45000D01*
G01*
D13*
X2351000Y3735000D02*
G75*
G03*
X2351000Y3735000I-65000J0D01*
G01*
X2351000Y2285000D02*
G75*
G03*
X2351000Y2285000I-65000J0D01*
G01*
X2441000Y5955000D02*
G75*
G03*
X2441000Y5955000I-65000J0D01*
G01*
X2441000Y4505000D02*
G75*
G03*
X2441000Y4505000I-65000J0D01*
G01*
X2605000Y2285000D02*
G75*
G03*
X2605000Y2285000I-65000J0D01*
G01*
X2695000Y4505000D02*
G75*
G03*
X2695000Y4505000I-65000J0D01*
G01*
X2859000Y3735000D02*
G75*
G03*
X2859000Y3735000I-65000J0D01*
G01*
X2859000Y2285000D02*
G75*
G03*
X2859000Y2285000I-65000J0D01*
G01*
X2949000Y5955000D02*
G75*
G03*
X2949000Y5955000I-65000J0D01*
G01*
X2949000Y4505000D02*
G75*
G03*
X2949000Y4505000I-65000J0D01*
G01*
D14*
X1990000Y3110000D02*
X1990000Y2960000D01*
X1915000Y3035000D02*
X2065000Y3035000D01*
D11*
X2055000Y2960000D02*
X2055000Y3110000D01*
X1925000Y2960000D02*
X1925000Y3110000D01*
X2055000Y3110000D02*
G75*
G03*
X1925000Y3110000I-65000J0D01*
G01*
X1925000Y2960000D02*
G75*
G03*
X2055000Y2960000I65000J0D01*
G01*
D14*
X2080000Y5330000D02*
X2080000Y5180000D01*
X2005000Y5255000D02*
X2155000Y5255000D01*
D11*
X2145000Y5180000D02*
X2145000Y5330000D01*
X2015000Y5180000D02*
X2015000Y5330000D01*
X2145000Y5330000D02*
G75*
G03*
X2015000Y5330000I-65000J0D01*
G01*
X2015000Y5180000D02*
G75*
G03*
X2145000Y5180000I65000J0D01*
G01*
D14*
X3090000Y3110000D02*
X3090000Y2960000D01*
X3015000Y3035000D02*
X3165000Y3035000D01*
D11*
X3155000Y2960000D02*
X3155000Y3110000D01*
X3025000Y2960000D02*
X3025000Y3110000D01*
X3155000Y3110000D02*
G75*
G03*
X3025000Y3110000I-65000J0D01*
G01*
X3025000Y2960000D02*
G75*
G03*
X3155000Y2960000I65000J0D01*
G01*
D14*
X3180000Y5330000D02*
X3180000Y5180000D01*
X3105000Y5255000D02*
X3255000Y5255000D01*
D11*
X3245000Y5180000D02*
X3245000Y5330000D01*
X3115000Y5180000D02*
X3115000Y5330000D01*
X3245000Y5330000D02*
G75*
G03*
X3115000Y5330000I-65000J0D01*
G01*
X3115000Y5180000D02*
G75*
G03*
X3245000Y5180000I65000J0D01*
G01*
D15*
X4627408Y2904592D02*
X4627408Y3035408D01*
X4496592Y3035408D01*
X4496592Y2904592D01*
X4627408Y2904592D01*
X4677408Y5144592D02*
X4677408Y5275408D01*
X4546592Y5275408D01*
X4546592Y5144592D01*
X4677408Y5144592D01*
X5643408Y2904592D02*
X5643408Y3035408D01*
X5512592Y3035408D01*
X5512592Y2904592D01*
X5643408Y2904592D01*
X5693408Y5144592D02*
X5693408Y5275408D01*
X5562592Y5275408D01*
X5562592Y5144592D01*
X5693408Y5144592D01*
D16*
X4816000Y2312000D02*
X4966000Y2462000D01*
X4816000Y2612000D01*
X4666000Y2462000D01*
X4816000Y2312000D01*
X4866000Y4552000D02*
X5016000Y4702000D01*
X4866000Y4852000D01*
X4716000Y4702000D01*
X4866000Y4552000D01*
X5451000Y2566000D02*
X5601000Y2716000D01*
X5451000Y2866000D01*
X5301000Y2716000D01*
X5451000Y2566000D01*
X5501000Y4806000D02*
X5651000Y4956000D01*
X5501000Y5106000D01*
X5351000Y4956000D01*
X5501000Y4806000D01*
D17*
X4870000Y3170000D02*
X5270000Y2770000D01*
X5270000Y3170000D02*
X4870000Y2770000D01*
X5270000Y2970000D02*
G75*
G03*
X5270000Y2970000I-200000J0D01*
G01*
X4920000Y5410000D02*
X5320000Y5010000D01*
X5320000Y5410000D02*
X4920000Y5010000D01*
X5320000Y5210000D02*
G75*
G03*
X5320000Y5210000I-200000J0D01*
G01*
D11*
X252619Y-315476D02*
X252619Y-115476D01*
X300238Y-115476D01*
X328810Y-125000D01*
X347857Y-144048D01*
X357381Y-163095D01*
X366905Y-201190D01*
X366905Y-229762D01*
X357381Y-267857D01*
X347857Y-286905D01*
X328810Y-305952D01*
X300238Y-315476D01*
X252619Y-315476D01*
X452619Y-315476D02*
X452619Y-182143D01*
X452619Y-220238D02*
X462143Y-201190D01*
X471667Y-191667D01*
X490714Y-182143D01*
X509762Y-182143D01*
X576429Y-315476D02*
X576429Y-182143D01*
X576429Y-115476D02*
X566905Y-125000D01*
X576429Y-134524D01*
X585952Y-125000D01*
X576429Y-115476D01*
X576429Y-134524D01*
X700238Y-315476D02*
X681190Y-305952D01*
X671667Y-286905D01*
X671667Y-115476D01*
X805000Y-315476D02*
X785952Y-305952D01*
X776428Y-286905D01*
X776428Y-115476D01*
X1033571Y-315476D02*
X1033571Y-115476D01*
X1100238Y-258333D01*
X1166905Y-115476D01*
X1166905Y-315476D01*
X1347857Y-315476D02*
X1347857Y-210714D01*
X1338333Y-191667D01*
X1319286Y-182143D01*
X1281190Y-182143D01*
X1262143Y-191667D01*
X1347857Y-305952D02*
X1328810Y-315476D01*
X1281190Y-315476D01*
X1262143Y-305952D01*
X1252619Y-286905D01*
X1252619Y-267857D01*
X1262143Y-248809D01*
X1281190Y-239286D01*
X1328810Y-239286D01*
X1347857Y-229762D01*
X1443095Y-182143D02*
X1443095Y-382143D01*
X1443095Y-191667D02*
X1462143Y-182143D01*
X1500238Y-182143D01*
X1519286Y-191667D01*
X1528809Y-201190D01*
X1538333Y-220238D01*
X1538333Y-277381D01*
X1528809Y-296429D01*
X1519286Y-305952D01*
X1500238Y-315476D01*
X1462143Y-315476D01*
X1443095Y-305952D01*
X1624048Y-296429D02*
X1633571Y-305952D01*
X1624048Y-315476D01*
X1614524Y-305952D01*
X1624048Y-296429D01*
X1624048Y-315476D01*
X1624048Y-191667D02*
X1633571Y-201190D01*
X1624048Y-210714D01*
X1614524Y-201190D01*
X1624048Y-191667D01*
X1624048Y-210714D01*
D12*
X-115000Y-590000D02*
X-5000Y-700000D01*
X-5000Y-590000D02*
X-115000Y-700000D01*
D11*
X357381Y-735476D02*
X243095Y-735476D01*
X300238Y-735476D02*
X300238Y-535476D01*
X281190Y-564048D01*
X262143Y-583095D01*
X243095Y-592619D01*
X443095Y-716428D02*
X452619Y-725952D01*
X443095Y-735476D01*
X433571Y-725952D01*
X443095Y-716428D01*
X443095Y-735476D01*
X643095Y-735476D02*
X528810Y-735476D01*
X585952Y-735476D02*
X585952Y-535476D01*
X566905Y-564048D01*
X547857Y-583095D01*
X528810Y-592619D01*
X766905Y-535476D02*
X785952Y-535476D01*
X805000Y-545000D01*
X814524Y-554524D01*
X824048Y-573571D01*
X833571Y-611667D01*
X833571Y-659286D01*
X824048Y-697381D01*
X814524Y-716428D01*
X805000Y-725952D01*
X785952Y-735476D01*
X766905Y-735476D01*
X747857Y-725952D01*
X738333Y-716428D01*
X728809Y-697381D01*
X719286Y-659286D01*
X719286Y-611667D01*
X728809Y-573571D01*
X738333Y-554524D01*
X747857Y-545000D01*
X766905Y-535476D01*
X957381Y-535476D02*
X976428Y-535476D01*
X995476Y-545000D01*
X1005000Y-554524D01*
X1014524Y-573571D01*
X1024048Y-611667D01*
X1024048Y-659286D01*
X1014524Y-697381D01*
X1005000Y-716428D01*
X995476Y-725952D01*
X976428Y-735476D01*
X957381Y-735476D01*
X938333Y-725952D01*
X928809Y-716428D01*
X919286Y-697381D01*
X909762Y-659286D01*
X909762Y-611667D01*
X919286Y-573571D01*
X928809Y-554524D01*
X938333Y-545000D01*
X957381Y-535476D01*
X1109762Y-735476D02*
X1109762Y-602143D01*
X1109762Y-621190D02*
X1119286Y-611667D01*
X1138333Y-602143D01*
X1166905Y-602143D01*
X1185952Y-611667D01*
X1195476Y-630714D01*
X1195476Y-735476D01*
X1195476Y-630714D02*
X1205000Y-611667D01*
X1224048Y-602143D01*
X1252619Y-602143D01*
X1271667Y-611667D01*
X1281190Y-630714D01*
X1281190Y-735476D01*
X1376429Y-735476D02*
X1376429Y-602143D01*
X1376429Y-621190D02*
X1385952Y-611667D01*
X1405000Y-602143D01*
X1433571Y-602143D01*
X1452619Y-611667D01*
X1462143Y-630714D01*
X1462143Y-735476D01*
X1462143Y-630714D02*
X1471667Y-611667D01*
X1490714Y-602143D01*
X1519286Y-602143D01*
X1538333Y-611667D01*
X1547857Y-630714D01*
X1547857Y-735476D01*
X1938333Y-525952D02*
X1766905Y-783095D01*
X2195476Y-535476D02*
X2214524Y-535476D01*
X2233571Y-545000D01*
X2243095Y-554524D01*
X2252619Y-573571D01*
X2262143Y-611667D01*
X2262143Y-659286D01*
X2252619Y-697381D01*
X2243095Y-716428D01*
X2233571Y-725952D01*
X2214524Y-735476D01*
X2195476Y-735476D01*
X2176429Y-725952D01*
X2166905Y-716428D01*
X2157381Y-697381D01*
X2147857Y-659286D01*
X2147857Y-611667D01*
X2157381Y-573571D01*
X2166905Y-554524D01*
X2176429Y-545000D01*
X2195476Y-535476D01*
X2347857Y-716428D02*
X2357381Y-725952D01*
X2347857Y-735476D01*
X2338333Y-725952D01*
X2347857Y-716428D01*
X2347857Y-735476D01*
X2481190Y-535476D02*
X2500238Y-535476D01*
X2519286Y-545000D01*
X2528810Y-554524D01*
X2538333Y-573571D01*
X2547857Y-611667D01*
X2547857Y-659286D01*
X2538333Y-697381D01*
X2528810Y-716428D01*
X2519286Y-725952D01*
X2500238Y-735476D01*
X2481190Y-735476D01*
X2462143Y-725952D01*
X2452619Y-716428D01*
X2443095Y-697381D01*
X2433571Y-659286D01*
X2433571Y-611667D01*
X2443095Y-573571D01*
X2452619Y-554524D01*
X2462143Y-545000D01*
X2481190Y-535476D01*
X2719286Y-602143D02*
X2719286Y-735476D01*
X2671667Y-525952D02*
X2624048Y-668810D01*
X2747857Y-668810D01*
X2805000Y-535476D02*
X2928809Y-535476D01*
X2862143Y-611667D01*
X2890714Y-611667D01*
X2909762Y-621190D01*
X2919286Y-630714D01*
X2928809Y-649762D01*
X2928809Y-697381D01*
X2919286Y-716428D01*
X2909762Y-725952D01*
X2890714Y-735476D01*
X2833571Y-735476D01*
X2814524Y-725952D01*
X2805000Y-716428D01*
X2995476Y-535476D02*
X3119286Y-535476D01*
X3052619Y-611667D01*
X3081190Y-611667D01*
X3100238Y-621190D01*
X3109762Y-630714D01*
X3119286Y-649762D01*
X3119286Y-697381D01*
X3109762Y-716428D01*
X3100238Y-725952D01*
X3081190Y-735476D01*
X3024048Y-735476D01*
X3005000Y-725952D01*
X2995476Y-716428D01*
X3195476Y-535476D02*
X3195476Y-573571D01*
X3271667Y-535476D02*
X3271667Y-573571D01*
X3566905Y-811667D02*
X3557381Y-802143D01*
X3538333Y-773571D01*
X3528809Y-754524D01*
X3519286Y-725952D01*
X3509762Y-678333D01*
X3509762Y-640238D01*
X3519286Y-592619D01*
X3528809Y-564048D01*
X3538333Y-545000D01*
X3557381Y-516428D01*
X3566905Y-506905D01*
X3681190Y-535476D02*
X3700238Y-535476D01*
X3719286Y-545000D01*
X3728809Y-554524D01*
X3738333Y-573571D01*
X3747857Y-611667D01*
X3747857Y-659286D01*
X3738333Y-697381D01*
X3728809Y-716428D01*
X3719286Y-725952D01*
X3700238Y-735476D01*
X3681190Y-735476D01*
X3662143Y-725952D01*
X3652619Y-716428D01*
X3643095Y-697381D01*
X3633571Y-659286D01*
X3633571Y-611667D01*
X3643095Y-573571D01*
X3652619Y-554524D01*
X3662143Y-545000D01*
X3681190Y-535476D01*
X3985952Y-735476D02*
X3985952Y-535476D01*
X4071667Y-735476D02*
X4071667Y-630714D01*
X4062143Y-611667D01*
X4043095Y-602143D01*
X4014524Y-602143D01*
X3995476Y-611667D01*
X3985952Y-621190D01*
X4195476Y-735476D02*
X4176428Y-725952D01*
X4166905Y-716428D01*
X4157381Y-697381D01*
X4157381Y-640238D01*
X4166905Y-621190D01*
X4176428Y-611667D01*
X4195476Y-602143D01*
X4224048Y-602143D01*
X4243095Y-611667D01*
X4252619Y-621190D01*
X4262143Y-640238D01*
X4262143Y-697381D01*
X4252619Y-716428D01*
X4243095Y-725952D01*
X4224048Y-735476D01*
X4195476Y-735476D01*
X4376429Y-735476D02*
X4357381Y-725952D01*
X4347857Y-706905D01*
X4347857Y-535476D01*
X4528810Y-725952D02*
X4509762Y-735476D01*
X4471667Y-735476D01*
X4452619Y-725952D01*
X4443095Y-706905D01*
X4443095Y-630714D01*
X4452619Y-611667D01*
X4471667Y-602143D01*
X4509762Y-602143D01*
X4528810Y-611667D01*
X4538333Y-630714D01*
X4538333Y-649762D01*
X4443095Y-668810D01*
X4614524Y-725952D02*
X4633571Y-735476D01*
X4671667Y-735476D01*
X4690714Y-725952D01*
X4700238Y-706905D01*
X4700238Y-697381D01*
X4690714Y-678333D01*
X4671667Y-668810D01*
X4643095Y-668810D01*
X4624048Y-659286D01*
X4614524Y-640238D01*
X4614524Y-630714D01*
X4624048Y-611667D01*
X4643095Y-602143D01*
X4671667Y-602143D01*
X4690714Y-611667D01*
X4938333Y-659286D02*
X5090714Y-659286D01*
X5014524Y-735476D02*
X5014524Y-583095D01*
X5319286Y-535476D02*
X5443095Y-535476D01*
X5376429Y-611667D01*
X5405000Y-611667D01*
X5424048Y-621190D01*
X5433571Y-630714D01*
X5443095Y-649762D01*
X5443095Y-697381D01*
X5433571Y-716428D01*
X5424048Y-725952D01*
X5405000Y-735476D01*
X5347857Y-735476D01*
X5328810Y-725952D01*
X5319286Y-716428D01*
X5633571Y-735476D02*
X5519286Y-735476D01*
X5576429Y-735476D02*
X5576429Y-535476D01*
X5557381Y-564048D01*
X5538333Y-583095D01*
X5519286Y-592619D01*
X5862143Y-725952D02*
X5881190Y-735476D01*
X5919286Y-735476D01*
X5938333Y-725952D01*
X5947857Y-706905D01*
X5947857Y-697381D01*
X5938333Y-678333D01*
X5919286Y-668810D01*
X5890714Y-668810D01*
X5871667Y-659286D01*
X5862143Y-640238D01*
X5862143Y-630714D01*
X5871667Y-611667D01*
X5890714Y-602143D01*
X5919286Y-602143D01*
X5938333Y-611667D01*
X6062143Y-735476D02*
X6043095Y-725952D01*
X6033571Y-706905D01*
X6033571Y-535476D01*
X6166905Y-735476D02*
X6147857Y-725952D01*
X6138333Y-716428D01*
X6128809Y-697381D01*
X6128809Y-640238D01*
X6138333Y-621190D01*
X6147857Y-611667D01*
X6166905Y-602143D01*
X6195476Y-602143D01*
X6214524Y-611667D01*
X6224048Y-621190D01*
X6233571Y-640238D01*
X6233571Y-697381D01*
X6224048Y-716428D01*
X6214524Y-725952D01*
X6195476Y-735476D01*
X6166905Y-735476D01*
X6290714Y-602143D02*
X6366905Y-602143D01*
X6319286Y-535476D02*
X6319286Y-706905D01*
X6328809Y-725952D01*
X6347857Y-735476D01*
X6366905Y-735476D01*
X6424048Y-725952D02*
X6443095Y-735476D01*
X6481190Y-735476D01*
X6500238Y-725952D01*
X6509762Y-706905D01*
X6509762Y-697381D01*
X6500238Y-678333D01*
X6481190Y-668810D01*
X6452619Y-668810D01*
X6433571Y-659286D01*
X6424048Y-640238D01*
X6424048Y-630714D01*
X6433571Y-611667D01*
X6452619Y-602143D01*
X6481190Y-602143D01*
X6500238Y-611667D01*
X6576428Y-811667D02*
X6585952Y-802143D01*
X6605000Y-773571D01*
X6614524Y-754524D01*
X6624048Y-725952D01*
X6633571Y-678333D01*
X6633571Y-640238D01*
X6624048Y-592619D01*
X6614524Y-564048D01*
X6605000Y-545000D01*
X6585952Y-516428D01*
X6576428Y-506905D01*
D13*
X-5000Y-909000D02*
G75*
G03*
X-5000Y-909000I-65000J0D01*
G01*
D11*
X357381Y-999476D02*
X243095Y-999476D01*
X300238Y-999476D02*
X300238Y-799476D01*
X281190Y-828048D01*
X262143Y-847095D01*
X243095Y-856619D01*
X443095Y-980428D02*
X452619Y-989952D01*
X443095Y-999476D01*
X433571Y-989952D01*
X443095Y-980428D01*
X443095Y-999476D01*
X519286Y-799476D02*
X643095Y-799476D01*
X576429Y-875667D01*
X605000Y-875667D01*
X624048Y-885190D01*
X633571Y-894714D01*
X643095Y-913762D01*
X643095Y-961381D01*
X633571Y-980428D01*
X624048Y-989952D01*
X605000Y-999476D01*
X547857Y-999476D01*
X528810Y-989952D01*
X519286Y-980428D01*
X766905Y-799476D02*
X785952Y-799476D01*
X805000Y-809000D01*
X814524Y-818524D01*
X824048Y-837571D01*
X833571Y-875667D01*
X833571Y-923286D01*
X824048Y-961381D01*
X814524Y-980428D01*
X805000Y-989952D01*
X785952Y-999476D01*
X766905Y-999476D01*
X747857Y-989952D01*
X738333Y-980428D01*
X728809Y-961381D01*
X719286Y-923286D01*
X719286Y-875667D01*
X728809Y-837571D01*
X738333Y-818524D01*
X747857Y-809000D01*
X766905Y-799476D01*
X957381Y-799476D02*
X976428Y-799476D01*
X995476Y-809000D01*
X1005000Y-818524D01*
X1014524Y-837571D01*
X1024048Y-875667D01*
X1024048Y-923286D01*
X1014524Y-961381D01*
X1005000Y-980428D01*
X995476Y-989952D01*
X976428Y-999476D01*
X957381Y-999476D01*
X938333Y-989952D01*
X928809Y-980428D01*
X919286Y-961381D01*
X909762Y-923286D01*
X909762Y-875667D01*
X919286Y-837571D01*
X928809Y-818524D01*
X938333Y-809000D01*
X957381Y-799476D01*
X1109762Y-999476D02*
X1109762Y-866143D01*
X1109762Y-885190D02*
X1119286Y-875667D01*
X1138333Y-866143D01*
X1166905Y-866143D01*
X1185952Y-875667D01*
X1195476Y-894714D01*
X1195476Y-999476D01*
X1195476Y-894714D02*
X1205000Y-875667D01*
X1224048Y-866143D01*
X1252619Y-866143D01*
X1271667Y-875667D01*
X1281190Y-894714D01*
X1281190Y-999476D01*
X1376429Y-999476D02*
X1376429Y-866143D01*
X1376429Y-885190D02*
X1385952Y-875667D01*
X1405000Y-866143D01*
X1433571Y-866143D01*
X1452619Y-875667D01*
X1462143Y-894714D01*
X1462143Y-999476D01*
X1462143Y-894714D02*
X1471667Y-875667D01*
X1490714Y-866143D01*
X1519286Y-866143D01*
X1538333Y-875667D01*
X1547857Y-894714D01*
X1547857Y-999476D01*
X1938333Y-789952D02*
X1766905Y-1047095D01*
X2195476Y-799476D02*
X2214524Y-799476D01*
X2233571Y-809000D01*
X2243095Y-818524D01*
X2252619Y-837571D01*
X2262143Y-875667D01*
X2262143Y-923286D01*
X2252619Y-961381D01*
X2243095Y-980428D01*
X2233571Y-989952D01*
X2214524Y-999476D01*
X2195476Y-999476D01*
X2176429Y-989952D01*
X2166905Y-980428D01*
X2157381Y-961381D01*
X2147857Y-923286D01*
X2147857Y-875667D01*
X2157381Y-837571D01*
X2166905Y-818524D01*
X2176429Y-809000D01*
X2195476Y-799476D01*
X2347857Y-980428D02*
X2357381Y-989952D01*
X2347857Y-999476D01*
X2338333Y-989952D01*
X2347857Y-980428D01*
X2347857Y-999476D01*
X2481190Y-799476D02*
X2500238Y-799476D01*
X2519286Y-809000D01*
X2528810Y-818524D01*
X2538333Y-837571D01*
X2547857Y-875667D01*
X2547857Y-923286D01*
X2538333Y-961381D01*
X2528810Y-980428D01*
X2519286Y-989952D01*
X2500238Y-999476D01*
X2481190Y-999476D01*
X2462143Y-989952D01*
X2452619Y-980428D01*
X2443095Y-961381D01*
X2433571Y-923286D01*
X2433571Y-875667D01*
X2443095Y-837571D01*
X2452619Y-818524D01*
X2462143Y-809000D01*
X2481190Y-799476D01*
X2728810Y-799476D02*
X2633571Y-799476D01*
X2624048Y-894714D01*
X2633571Y-885190D01*
X2652619Y-875667D01*
X2700238Y-875667D01*
X2719286Y-885190D01*
X2728810Y-894714D01*
X2738333Y-913762D01*
X2738333Y-961381D01*
X2728810Y-980428D01*
X2719286Y-989952D01*
X2700238Y-999476D01*
X2652619Y-999476D01*
X2633571Y-989952D01*
X2624048Y-980428D01*
X2928809Y-999476D02*
X2814524Y-999476D01*
X2871667Y-999476D02*
X2871667Y-799476D01*
X2852619Y-828048D01*
X2833571Y-847095D01*
X2814524Y-856619D01*
X3005000Y-818524D02*
X3014524Y-809000D01*
X3033571Y-799476D01*
X3081190Y-799476D01*
X3100238Y-809000D01*
X3109762Y-818524D01*
X3119286Y-837571D01*
X3119286Y-856619D01*
X3109762Y-885190D01*
X2995476Y-999476D01*
X3119286Y-999476D01*
X3195476Y-799476D02*
X3195476Y-837571D01*
X3271667Y-799476D02*
X3271667Y-837571D01*
X3566905Y-1075667D02*
X3557381Y-1066143D01*
X3538333Y-1037571D01*
X3528809Y-1018524D01*
X3519286Y-989952D01*
X3509762Y-942333D01*
X3509762Y-904238D01*
X3519286Y-856619D01*
X3528809Y-828048D01*
X3538333Y-809000D01*
X3557381Y-780428D01*
X3566905Y-770905D01*
X3747857Y-999476D02*
X3633571Y-999476D01*
X3690714Y-999476D02*
X3690714Y-799476D01*
X3671667Y-828048D01*
X3652619Y-847095D01*
X3633571Y-856619D01*
X3871667Y-799476D02*
X3890714Y-799476D01*
X3909762Y-809000D01*
X3919286Y-818524D01*
X3928809Y-837571D01*
X3938333Y-875667D01*
X3938333Y-923286D01*
X3928809Y-961381D01*
X3919286Y-980428D01*
X3909762Y-989952D01*
X3890714Y-999476D01*
X3871667Y-999476D01*
X3852619Y-989952D01*
X3843095Y-980428D01*
X3833571Y-961381D01*
X3824048Y-923286D01*
X3824048Y-875667D01*
X3833571Y-837571D01*
X3843095Y-818524D01*
X3852619Y-809000D01*
X3871667Y-799476D01*
X4176428Y-999476D02*
X4176428Y-799476D01*
X4262143Y-999476D02*
X4262143Y-894714D01*
X4252619Y-875667D01*
X4233571Y-866143D01*
X4205000Y-866143D01*
X4185952Y-875667D01*
X4176428Y-885190D01*
X4385952Y-999476D02*
X4366905Y-989952D01*
X4357381Y-980428D01*
X4347857Y-961381D01*
X4347857Y-904238D01*
X4357381Y-885190D01*
X4366905Y-875667D01*
X4385952Y-866143D01*
X4414524Y-866143D01*
X4433571Y-875667D01*
X4443095Y-885190D01*
X4452619Y-904238D01*
X4452619Y-961381D01*
X4443095Y-980428D01*
X4433571Y-989952D01*
X4414524Y-999476D01*
X4385952Y-999476D01*
X4566905Y-999476D02*
X4547857Y-989952D01*
X4538333Y-970905D01*
X4538333Y-799476D01*
X4719286Y-989952D02*
X4700238Y-999476D01*
X4662143Y-999476D01*
X4643095Y-989952D01*
X4633571Y-970905D01*
X4633571Y-894714D01*
X4643095Y-875667D01*
X4662143Y-866143D01*
X4700238Y-866143D01*
X4719286Y-875667D01*
X4728810Y-894714D01*
X4728810Y-913762D01*
X4633571Y-932809D01*
X4805000Y-989952D02*
X4824048Y-999476D01*
X4862143Y-999476D01*
X4881190Y-989952D01*
X4890714Y-970905D01*
X4890714Y-961381D01*
X4881190Y-942333D01*
X4862143Y-932809D01*
X4833571Y-932809D01*
X4814524Y-923286D01*
X4805000Y-904238D01*
X4805000Y-894714D01*
X4814524Y-875667D01*
X4833571Y-866143D01*
X4862143Y-866143D01*
X4881190Y-875667D01*
X4957381Y-1075667D02*
X4966905Y-1066143D01*
X4985952Y-1037571D01*
X4995476Y-1018524D01*
X5005000Y-989952D01*
X5014524Y-942333D01*
X5014524Y-904238D01*
X5005000Y-856619D01*
X4995476Y-828048D01*
X4985952Y-809000D01*
X4966905Y-780428D01*
X4957381Y-770905D01*
D14*
X-80000Y-1098000D02*
X-80000Y-1248000D01*
X-155000Y-1173000D02*
X-5000Y-1173000D01*
D11*
X357381Y-1263476D02*
X243095Y-1263476D01*
X300238Y-1263476D02*
X300238Y-1063476D01*
X281190Y-1092048D01*
X262143Y-1111095D01*
X243095Y-1120619D01*
X443095Y-1244429D02*
X452619Y-1253952D01*
X443095Y-1263476D01*
X433571Y-1253952D01*
X443095Y-1244429D01*
X443095Y-1263476D01*
X633571Y-1063476D02*
X538333Y-1063476D01*
X528810Y-1158714D01*
X538333Y-1149190D01*
X557381Y-1139667D01*
X605000Y-1139667D01*
X624048Y-1149190D01*
X633571Y-1158714D01*
X643095Y-1177762D01*
X643095Y-1225381D01*
X633571Y-1244429D01*
X624048Y-1253952D01*
X605000Y-1263476D01*
X557381Y-1263476D01*
X538333Y-1253952D01*
X528810Y-1244429D01*
X766905Y-1063476D02*
X785952Y-1063476D01*
X805000Y-1073000D01*
X814524Y-1082524D01*
X824048Y-1101571D01*
X833571Y-1139667D01*
X833571Y-1187286D01*
X824048Y-1225381D01*
X814524Y-1244429D01*
X805000Y-1253952D01*
X785952Y-1263476D01*
X766905Y-1263476D01*
X747857Y-1253952D01*
X738333Y-1244429D01*
X728809Y-1225381D01*
X719286Y-1187286D01*
X719286Y-1139667D01*
X728809Y-1101571D01*
X738333Y-1082524D01*
X747857Y-1073000D01*
X766905Y-1063476D01*
X957381Y-1063476D02*
X976428Y-1063476D01*
X995476Y-1073000D01*
X1005000Y-1082524D01*
X1014524Y-1101571D01*
X1024048Y-1139667D01*
X1024048Y-1187286D01*
X1014524Y-1225381D01*
X1005000Y-1244429D01*
X995476Y-1253952D01*
X976428Y-1263476D01*
X957381Y-1263476D01*
X938333Y-1253952D01*
X928809Y-1244429D01*
X919286Y-1225381D01*
X909762Y-1187286D01*
X909762Y-1139667D01*
X919286Y-1101571D01*
X928809Y-1082524D01*
X938333Y-1073000D01*
X957381Y-1063476D01*
X1109762Y-1263476D02*
X1109762Y-1130143D01*
X1109762Y-1149190D02*
X1119286Y-1139667D01*
X1138333Y-1130143D01*
X1166905Y-1130143D01*
X1185952Y-1139667D01*
X1195476Y-1158714D01*
X1195476Y-1263476D01*
X1195476Y-1158714D02*
X1205000Y-1139667D01*
X1224048Y-1130143D01*
X1252619Y-1130143D01*
X1271667Y-1139667D01*
X1281190Y-1158714D01*
X1281190Y-1263476D01*
X1376429Y-1263476D02*
X1376429Y-1130143D01*
X1376429Y-1149190D02*
X1385952Y-1139667D01*
X1405000Y-1130143D01*
X1433571Y-1130143D01*
X1452619Y-1139667D01*
X1462143Y-1158714D01*
X1462143Y-1263476D01*
X1462143Y-1158714D02*
X1471667Y-1139667D01*
X1490714Y-1130143D01*
X1519286Y-1130143D01*
X1538333Y-1139667D01*
X1547857Y-1158714D01*
X1547857Y-1263476D01*
X1938333Y-1053952D02*
X1766905Y-1311095D01*
X2195476Y-1063476D02*
X2214524Y-1063476D01*
X2233571Y-1073000D01*
X2243095Y-1082524D01*
X2252619Y-1101571D01*
X2262143Y-1139667D01*
X2262143Y-1187286D01*
X2252619Y-1225381D01*
X2243095Y-1244429D01*
X2233571Y-1253952D01*
X2214524Y-1263476D01*
X2195476Y-1263476D01*
X2176429Y-1253952D01*
X2166905Y-1244429D01*
X2157381Y-1225381D01*
X2147857Y-1187286D01*
X2147857Y-1139667D01*
X2157381Y-1101571D01*
X2166905Y-1082524D01*
X2176429Y-1073000D01*
X2195476Y-1063476D01*
X2347857Y-1244429D02*
X2357381Y-1253952D01*
X2347857Y-1263476D01*
X2338333Y-1253952D01*
X2347857Y-1244429D01*
X2347857Y-1263476D01*
X2481190Y-1063476D02*
X2500238Y-1063476D01*
X2519286Y-1073000D01*
X2528810Y-1082524D01*
X2538333Y-1101571D01*
X2547857Y-1139667D01*
X2547857Y-1187286D01*
X2538333Y-1225381D01*
X2528810Y-1244429D01*
X2519286Y-1253952D01*
X2500238Y-1263476D01*
X2481190Y-1263476D01*
X2462143Y-1253952D01*
X2452619Y-1244429D01*
X2443095Y-1225381D01*
X2433571Y-1187286D01*
X2433571Y-1139667D01*
X2443095Y-1101571D01*
X2452619Y-1082524D01*
X2462143Y-1073000D01*
X2481190Y-1063476D01*
X2728810Y-1063476D02*
X2633571Y-1063476D01*
X2624048Y-1158714D01*
X2633571Y-1149190D01*
X2652619Y-1139667D01*
X2700238Y-1139667D01*
X2719286Y-1149190D01*
X2728810Y-1158714D01*
X2738333Y-1177762D01*
X2738333Y-1225381D01*
X2728810Y-1244429D01*
X2719286Y-1253952D01*
X2700238Y-1263476D01*
X2652619Y-1263476D01*
X2633571Y-1253952D01*
X2624048Y-1244429D01*
X2833571Y-1263476D02*
X2871667Y-1263476D01*
X2890714Y-1253952D01*
X2900238Y-1244429D01*
X2919286Y-1215857D01*
X2928809Y-1177762D01*
X2928809Y-1101571D01*
X2919286Y-1082524D01*
X2909762Y-1073000D01*
X2890714Y-1063476D01*
X2852619Y-1063476D01*
X2833571Y-1073000D01*
X2824048Y-1082524D01*
X2814524Y-1101571D01*
X2814524Y-1149190D01*
X2824048Y-1168238D01*
X2833571Y-1177762D01*
X2852619Y-1187286D01*
X2890714Y-1187286D01*
X2909762Y-1177762D01*
X2919286Y-1168238D01*
X2928809Y-1149190D01*
X3119286Y-1263476D02*
X3005000Y-1263476D01*
X3062143Y-1263476D02*
X3062143Y-1063476D01*
X3043095Y-1092048D01*
X3024048Y-1111095D01*
X3005000Y-1120619D01*
X3195476Y-1063476D02*
X3195476Y-1101571D01*
X3271667Y-1063476D02*
X3271667Y-1101571D01*
X3566905Y-1339667D02*
X3557381Y-1330143D01*
X3538333Y-1301571D01*
X3528809Y-1282524D01*
X3519286Y-1253952D01*
X3509762Y-1206333D01*
X3509762Y-1168238D01*
X3519286Y-1120619D01*
X3528809Y-1092048D01*
X3538333Y-1073000D01*
X3557381Y-1044428D01*
X3566905Y-1034905D01*
X3681190Y-1063476D02*
X3700238Y-1063476D01*
X3719286Y-1073000D01*
X3728809Y-1082524D01*
X3738333Y-1101571D01*
X3747857Y-1139667D01*
X3747857Y-1187286D01*
X3738333Y-1225381D01*
X3728809Y-1244429D01*
X3719286Y-1253952D01*
X3700238Y-1263476D01*
X3681190Y-1263476D01*
X3662143Y-1253952D01*
X3652619Y-1244429D01*
X3643095Y-1225381D01*
X3633571Y-1187286D01*
X3633571Y-1139667D01*
X3643095Y-1101571D01*
X3652619Y-1082524D01*
X3662143Y-1073000D01*
X3681190Y-1063476D01*
X3985952Y-1263476D02*
X3985952Y-1063476D01*
X4071667Y-1263476D02*
X4071667Y-1158714D01*
X4062143Y-1139667D01*
X4043095Y-1130143D01*
X4014524Y-1130143D01*
X3995476Y-1139667D01*
X3985952Y-1149190D01*
X4195476Y-1263476D02*
X4176428Y-1253952D01*
X4166905Y-1244429D01*
X4157381Y-1225381D01*
X4157381Y-1168238D01*
X4166905Y-1149190D01*
X4176428Y-1139667D01*
X4195476Y-1130143D01*
X4224048Y-1130143D01*
X4243095Y-1139667D01*
X4252619Y-1149190D01*
X4262143Y-1168238D01*
X4262143Y-1225381D01*
X4252619Y-1244429D01*
X4243095Y-1253952D01*
X4224048Y-1263476D01*
X4195476Y-1263476D01*
X4376429Y-1263476D02*
X4357381Y-1253952D01*
X4347857Y-1234905D01*
X4347857Y-1063476D01*
X4528810Y-1253952D02*
X4509762Y-1263476D01*
X4471667Y-1263476D01*
X4452619Y-1253952D01*
X4443095Y-1234905D01*
X4443095Y-1158714D01*
X4452619Y-1139667D01*
X4471667Y-1130143D01*
X4509762Y-1130143D01*
X4528810Y-1139667D01*
X4538333Y-1158714D01*
X4538333Y-1177762D01*
X4443095Y-1196810D01*
X4614524Y-1253952D02*
X4633571Y-1263476D01*
X4671667Y-1263476D01*
X4690714Y-1253952D01*
X4700238Y-1234905D01*
X4700238Y-1225381D01*
X4690714Y-1206333D01*
X4671667Y-1196810D01*
X4643095Y-1196810D01*
X4624048Y-1187286D01*
X4614524Y-1168238D01*
X4614524Y-1158714D01*
X4624048Y-1139667D01*
X4643095Y-1130143D01*
X4671667Y-1130143D01*
X4690714Y-1139667D01*
X4938333Y-1187286D02*
X5090714Y-1187286D01*
X5014524Y-1263476D02*
X5014524Y-1111095D01*
X5424048Y-1130143D02*
X5424048Y-1263476D01*
X5376429Y-1053952D02*
X5328810Y-1196810D01*
X5452619Y-1196810D01*
X5671667Y-1253952D02*
X5690714Y-1263476D01*
X5728809Y-1263476D01*
X5747857Y-1253952D01*
X5757381Y-1234905D01*
X5757381Y-1225381D01*
X5747857Y-1206333D01*
X5728809Y-1196810D01*
X5700238Y-1196810D01*
X5681190Y-1187286D01*
X5671667Y-1168238D01*
X5671667Y-1158714D01*
X5681190Y-1139667D01*
X5700238Y-1130143D01*
X5728809Y-1130143D01*
X5747857Y-1139667D01*
X5871667Y-1263476D02*
X5852619Y-1253952D01*
X5843095Y-1234905D01*
X5843095Y-1063476D01*
X5976428Y-1263476D02*
X5957381Y-1253952D01*
X5947857Y-1244429D01*
X5938333Y-1225381D01*
X5938333Y-1168238D01*
X5947857Y-1149190D01*
X5957381Y-1139667D01*
X5976428Y-1130143D01*
X6005000Y-1130143D01*
X6024048Y-1139667D01*
X6033571Y-1149190D01*
X6043095Y-1168238D01*
X6043095Y-1225381D01*
X6033571Y-1244429D01*
X6024048Y-1253952D01*
X6005000Y-1263476D01*
X5976428Y-1263476D01*
X6100238Y-1130143D02*
X6176428Y-1130143D01*
X6128809Y-1063476D02*
X6128809Y-1234905D01*
X6138333Y-1253952D01*
X6157381Y-1263476D01*
X6176428Y-1263476D01*
X6233571Y-1253952D02*
X6252619Y-1263476D01*
X6290714Y-1263476D01*
X6309762Y-1253952D01*
X6319286Y-1234905D01*
X6319286Y-1225381D01*
X6309762Y-1206333D01*
X6290714Y-1196810D01*
X6262143Y-1196810D01*
X6243095Y-1187286D01*
X6233571Y-1168238D01*
X6233571Y-1158714D01*
X6243095Y-1139667D01*
X6262143Y-1130143D01*
X6290714Y-1130143D01*
X6309762Y-1139667D01*
X6385952Y-1339667D02*
X6395476Y-1330143D01*
X6414524Y-1301571D01*
X6424048Y-1282524D01*
X6433571Y-1253952D01*
X6443095Y-1206333D01*
X6443095Y-1168238D01*
X6433571Y-1120619D01*
X6424048Y-1092048D01*
X6414524Y-1073000D01*
X6395476Y-1044428D01*
X6385952Y-1034905D01*
D15*
X-32092Y-1508408D02*
X-32092Y-1377592D01*
X-162908Y-1377592D01*
X-162908Y-1508408D01*
X-32092Y-1508408D01*
D11*
X357381Y-1533476D02*
X243095Y-1533476D01*
X300238Y-1533476D02*
X300238Y-1333476D01*
X281190Y-1362048D01*
X262143Y-1381095D01*
X243095Y-1390619D01*
X443095Y-1514428D02*
X452619Y-1523952D01*
X443095Y-1533476D01*
X433571Y-1523952D01*
X443095Y-1514428D01*
X443095Y-1533476D01*
X566905Y-1419190D02*
X547857Y-1409667D01*
X538333Y-1400143D01*
X528810Y-1381095D01*
X528810Y-1371571D01*
X538333Y-1352524D01*
X547857Y-1343000D01*
X566905Y-1333476D01*
X605000Y-1333476D01*
X624048Y-1343000D01*
X633571Y-1352524D01*
X643095Y-1371571D01*
X643095Y-1381095D01*
X633571Y-1400143D01*
X624048Y-1409667D01*
X605000Y-1419190D01*
X566905Y-1419190D01*
X547857Y-1428714D01*
X538333Y-1438238D01*
X528810Y-1457286D01*
X528810Y-1495381D01*
X538333Y-1514428D01*
X547857Y-1523952D01*
X566905Y-1533476D01*
X605000Y-1533476D01*
X624048Y-1523952D01*
X633571Y-1514428D01*
X643095Y-1495381D01*
X643095Y-1457286D01*
X633571Y-1438238D01*
X624048Y-1428714D01*
X605000Y-1419190D01*
X824048Y-1333476D02*
X728809Y-1333476D01*
X719286Y-1428714D01*
X728809Y-1419190D01*
X747857Y-1409667D01*
X795476Y-1409667D01*
X814524Y-1419190D01*
X824048Y-1428714D01*
X833571Y-1447762D01*
X833571Y-1495381D01*
X824048Y-1514428D01*
X814524Y-1523952D01*
X795476Y-1533476D01*
X747857Y-1533476D01*
X728809Y-1523952D01*
X719286Y-1514428D01*
X957381Y-1333476D02*
X976428Y-1333476D01*
X995476Y-1343000D01*
X1005000Y-1352524D01*
X1014524Y-1371571D01*
X1024048Y-1409667D01*
X1024048Y-1457286D01*
X1014524Y-1495381D01*
X1005000Y-1514428D01*
X995476Y-1523952D01*
X976428Y-1533476D01*
X957381Y-1533476D01*
X938333Y-1523952D01*
X928809Y-1514428D01*
X919286Y-1495381D01*
X909762Y-1457286D01*
X909762Y-1409667D01*
X919286Y-1371571D01*
X928809Y-1352524D01*
X938333Y-1343000D01*
X957381Y-1333476D01*
X1109762Y-1533476D02*
X1109762Y-1400143D01*
X1109762Y-1419190D02*
X1119286Y-1409667D01*
X1138333Y-1400143D01*
X1166905Y-1400143D01*
X1185952Y-1409667D01*
X1195476Y-1428714D01*
X1195476Y-1533476D01*
X1195476Y-1428714D02*
X1205000Y-1409667D01*
X1224048Y-1400143D01*
X1252619Y-1400143D01*
X1271667Y-1409667D01*
X1281190Y-1428714D01*
X1281190Y-1533476D01*
X1376429Y-1533476D02*
X1376429Y-1400143D01*
X1376429Y-1419190D02*
X1385952Y-1409667D01*
X1405000Y-1400143D01*
X1433571Y-1400143D01*
X1452619Y-1409667D01*
X1462143Y-1428714D01*
X1462143Y-1533476D01*
X1462143Y-1428714D02*
X1471667Y-1409667D01*
X1490714Y-1400143D01*
X1519286Y-1400143D01*
X1538333Y-1409667D01*
X1547857Y-1428714D01*
X1547857Y-1533476D01*
X1938333Y-1323952D02*
X1766905Y-1581095D01*
X2195476Y-1333476D02*
X2214524Y-1333476D01*
X2233571Y-1343000D01*
X2243095Y-1352524D01*
X2252619Y-1371571D01*
X2262143Y-1409667D01*
X2262143Y-1457286D01*
X2252619Y-1495381D01*
X2243095Y-1514428D01*
X2233571Y-1523952D01*
X2214524Y-1533476D01*
X2195476Y-1533476D01*
X2176429Y-1523952D01*
X2166905Y-1514428D01*
X2157381Y-1495381D01*
X2147857Y-1457286D01*
X2147857Y-1409667D01*
X2157381Y-1371571D01*
X2166905Y-1352524D01*
X2176429Y-1343000D01*
X2195476Y-1333476D01*
X2347857Y-1514428D02*
X2357381Y-1523952D01*
X2347857Y-1533476D01*
X2338333Y-1523952D01*
X2347857Y-1514428D01*
X2347857Y-1533476D01*
X2481190Y-1333476D02*
X2500238Y-1333476D01*
X2519286Y-1343000D01*
X2528810Y-1352524D01*
X2538333Y-1371571D01*
X2547857Y-1409667D01*
X2547857Y-1457286D01*
X2538333Y-1495381D01*
X2528810Y-1514428D01*
X2519286Y-1523952D01*
X2500238Y-1533476D01*
X2481190Y-1533476D01*
X2462143Y-1523952D01*
X2452619Y-1514428D01*
X2443095Y-1495381D01*
X2433571Y-1457286D01*
X2433571Y-1409667D01*
X2443095Y-1371571D01*
X2452619Y-1352524D01*
X2462143Y-1343000D01*
X2481190Y-1333476D01*
X2614524Y-1333476D02*
X2747857Y-1333476D01*
X2662143Y-1533476D01*
X2814524Y-1352524D02*
X2824048Y-1343000D01*
X2843095Y-1333476D01*
X2890714Y-1333476D01*
X2909762Y-1343000D01*
X2919286Y-1352524D01*
X2928809Y-1371571D01*
X2928809Y-1390619D01*
X2919286Y-1419190D01*
X2805000Y-1533476D01*
X2928809Y-1533476D01*
X3043095Y-1419190D02*
X3024048Y-1409667D01*
X3014524Y-1400143D01*
X3005000Y-1381095D01*
X3005000Y-1371571D01*
X3014524Y-1352524D01*
X3024048Y-1343000D01*
X3043095Y-1333476D01*
X3081190Y-1333476D01*
X3100238Y-1343000D01*
X3109762Y-1352524D01*
X3119286Y-1371571D01*
X3119286Y-1381095D01*
X3109762Y-1400143D01*
X3100238Y-1409667D01*
X3081190Y-1419190D01*
X3043095Y-1419190D01*
X3024048Y-1428714D01*
X3014524Y-1438238D01*
X3005000Y-1457286D01*
X3005000Y-1495381D01*
X3014524Y-1514428D01*
X3024048Y-1523952D01*
X3043095Y-1533476D01*
X3081190Y-1533476D01*
X3100238Y-1523952D01*
X3109762Y-1514428D01*
X3119286Y-1495381D01*
X3119286Y-1457286D01*
X3109762Y-1438238D01*
X3100238Y-1428714D01*
X3081190Y-1419190D01*
X3195476Y-1333476D02*
X3195476Y-1371571D01*
X3271667Y-1333476D02*
X3271667Y-1371571D01*
X3566905Y-1609667D02*
X3557381Y-1600143D01*
X3538333Y-1571571D01*
X3528809Y-1552524D01*
X3519286Y-1523952D01*
X3509762Y-1476333D01*
X3509762Y-1438238D01*
X3519286Y-1390619D01*
X3528809Y-1362048D01*
X3538333Y-1343000D01*
X3557381Y-1314429D01*
X3566905Y-1304905D01*
X3728809Y-1400143D02*
X3728809Y-1533476D01*
X3681190Y-1323952D02*
X3633571Y-1466809D01*
X3757381Y-1466809D01*
X3985952Y-1533476D02*
X3985952Y-1333476D01*
X4071667Y-1533476D02*
X4071667Y-1428714D01*
X4062143Y-1409667D01*
X4043095Y-1400143D01*
X4014524Y-1400143D01*
X3995476Y-1409667D01*
X3985952Y-1419190D01*
X4195476Y-1533476D02*
X4176428Y-1523952D01*
X4166905Y-1514428D01*
X4157381Y-1495381D01*
X4157381Y-1438238D01*
X4166905Y-1419190D01*
X4176428Y-1409667D01*
X4195476Y-1400143D01*
X4224048Y-1400143D01*
X4243095Y-1409667D01*
X4252619Y-1419190D01*
X4262143Y-1438238D01*
X4262143Y-1495381D01*
X4252619Y-1514428D01*
X4243095Y-1523952D01*
X4224048Y-1533476D01*
X4195476Y-1533476D01*
X4376429Y-1533476D02*
X4357381Y-1523952D01*
X4347857Y-1504905D01*
X4347857Y-1333476D01*
X4528810Y-1523952D02*
X4509762Y-1533476D01*
X4471667Y-1533476D01*
X4452619Y-1523952D01*
X4443095Y-1504905D01*
X4443095Y-1428714D01*
X4452619Y-1409667D01*
X4471667Y-1400143D01*
X4509762Y-1400143D01*
X4528810Y-1409667D01*
X4538333Y-1428714D01*
X4538333Y-1447762D01*
X4443095Y-1466809D01*
X4614524Y-1523952D02*
X4633571Y-1533476D01*
X4671667Y-1533476D01*
X4690714Y-1523952D01*
X4700238Y-1504905D01*
X4700238Y-1495381D01*
X4690714Y-1476333D01*
X4671667Y-1466809D01*
X4643095Y-1466809D01*
X4624048Y-1457286D01*
X4614524Y-1438238D01*
X4614524Y-1428714D01*
X4624048Y-1409667D01*
X4643095Y-1400143D01*
X4671667Y-1400143D01*
X4690714Y-1409667D01*
X4766905Y-1609667D02*
X4776429Y-1600143D01*
X4795476Y-1571571D01*
X4805000Y-1552524D01*
X4814524Y-1523952D01*
X4824048Y-1476333D01*
X4824048Y-1438238D01*
X4814524Y-1390619D01*
X4805000Y-1362048D01*
X4795476Y-1343000D01*
X4776429Y-1314429D01*
X4766905Y-1304905D01*
X5128810Y-1609667D02*
X5119286Y-1600143D01*
X5100238Y-1571571D01*
X5090714Y-1552524D01*
X5081190Y-1523952D01*
X5071667Y-1476333D01*
X5071667Y-1438238D01*
X5081190Y-1390619D01*
X5090714Y-1362048D01*
X5100238Y-1343000D01*
X5119286Y-1314429D01*
X5128810Y-1304905D01*
X5205000Y-1400143D02*
X5205000Y-1533476D01*
X5205000Y-1419190D02*
X5214524Y-1409667D01*
X5233571Y-1400143D01*
X5262143Y-1400143D01*
X5281190Y-1409667D01*
X5290714Y-1428714D01*
X5290714Y-1533476D01*
X5414524Y-1533476D02*
X5395476Y-1523952D01*
X5385952Y-1514428D01*
X5376429Y-1495381D01*
X5376429Y-1438238D01*
X5385952Y-1419190D01*
X5395476Y-1409667D01*
X5414524Y-1400143D01*
X5443095Y-1400143D01*
X5462143Y-1409667D01*
X5471667Y-1419190D01*
X5481190Y-1438238D01*
X5481190Y-1495381D01*
X5471667Y-1514428D01*
X5462143Y-1523952D01*
X5443095Y-1533476D01*
X5414524Y-1533476D01*
X5538333Y-1400143D02*
X5614524Y-1400143D01*
X5566905Y-1333476D02*
X5566905Y-1504905D01*
X5576429Y-1523952D01*
X5595476Y-1533476D01*
X5614524Y-1533476D01*
X5833571Y-1400143D02*
X5833571Y-1600143D01*
X5833571Y-1409667D02*
X5852619Y-1400143D01*
X5890714Y-1400143D01*
X5909762Y-1409667D01*
X5919286Y-1419190D01*
X5928809Y-1438238D01*
X5928809Y-1495381D01*
X5919286Y-1514428D01*
X5909762Y-1523952D01*
X5890714Y-1533476D01*
X5852619Y-1533476D01*
X5833571Y-1523952D01*
X6043095Y-1533476D02*
X6024048Y-1523952D01*
X6014524Y-1504905D01*
X6014524Y-1333476D01*
X6205000Y-1533476D02*
X6205000Y-1428714D01*
X6195476Y-1409667D01*
X6176428Y-1400143D01*
X6138333Y-1400143D01*
X6119286Y-1409667D01*
X6205000Y-1523952D02*
X6185952Y-1533476D01*
X6138333Y-1533476D01*
X6119286Y-1523952D01*
X6109762Y-1504905D01*
X6109762Y-1485857D01*
X6119286Y-1466809D01*
X6138333Y-1457286D01*
X6185952Y-1457286D01*
X6205000Y-1447762D01*
X6271667Y-1400143D02*
X6347857Y-1400143D01*
X6300238Y-1333476D02*
X6300238Y-1504905D01*
X6309762Y-1523952D01*
X6328809Y-1533476D01*
X6347857Y-1533476D01*
X6490714Y-1523952D02*
X6471667Y-1533476D01*
X6433571Y-1533476D01*
X6414524Y-1523952D01*
X6405000Y-1504905D01*
X6405000Y-1428714D01*
X6414524Y-1409667D01*
X6433571Y-1400143D01*
X6471667Y-1400143D01*
X6490714Y-1409667D01*
X6500238Y-1428714D01*
X6500238Y-1447762D01*
X6405000Y-1466809D01*
X6671667Y-1533476D02*
X6671667Y-1333476D01*
X6671667Y-1523952D02*
X6652619Y-1533476D01*
X6614524Y-1533476D01*
X6595476Y-1523952D01*
X6585952Y-1514428D01*
X6576428Y-1495381D01*
X6576428Y-1438238D01*
X6585952Y-1419190D01*
X6595476Y-1409667D01*
X6614524Y-1400143D01*
X6652619Y-1400143D01*
X6671667Y-1409667D01*
X6747857Y-1609667D02*
X6757381Y-1600143D01*
X6776428Y-1571571D01*
X6785952Y-1552524D01*
X6795476Y-1523952D01*
X6805000Y-1476333D01*
X6805000Y-1438238D01*
X6795476Y-1390619D01*
X6785952Y-1362048D01*
X6776428Y-1343000D01*
X6757381Y-1314429D01*
X6747857Y-1304905D01*
X-105000Y-1848000D02*
X-5000Y-1748000D01*
X-105000Y-1648000D01*
X-205000Y-1748000D01*
X-105000Y-1848000D01*
X233571Y-1638476D02*
X357381Y-1638476D01*
X290714Y-1714667D01*
X319286Y-1714667D01*
X338333Y-1724190D01*
X347857Y-1733714D01*
X357381Y-1752762D01*
X357381Y-1800381D01*
X347857Y-1819428D01*
X338333Y-1828952D01*
X319286Y-1838476D01*
X262143Y-1838476D01*
X243095Y-1828952D01*
X233571Y-1819428D01*
X443095Y-1819428D02*
X452619Y-1828952D01*
X443095Y-1838476D01*
X433571Y-1828952D01*
X443095Y-1819428D01*
X443095Y-1838476D01*
X576429Y-1638476D02*
X595476Y-1638476D01*
X614524Y-1648000D01*
X624048Y-1657524D01*
X633571Y-1676571D01*
X643095Y-1714667D01*
X643095Y-1762286D01*
X633571Y-1800381D01*
X624048Y-1819428D01*
X614524Y-1828952D01*
X595476Y-1838476D01*
X576429Y-1838476D01*
X557381Y-1828952D01*
X547857Y-1819428D01*
X538333Y-1800381D01*
X528810Y-1762286D01*
X528810Y-1714667D01*
X538333Y-1676571D01*
X547857Y-1657524D01*
X557381Y-1648000D01*
X576429Y-1638476D01*
X766905Y-1638476D02*
X785952Y-1638476D01*
X805000Y-1648000D01*
X814524Y-1657524D01*
X824048Y-1676571D01*
X833571Y-1714667D01*
X833571Y-1762286D01*
X824048Y-1800381D01*
X814524Y-1819428D01*
X805000Y-1828952D01*
X785952Y-1838476D01*
X766905Y-1838476D01*
X747857Y-1828952D01*
X738333Y-1819428D01*
X728809Y-1800381D01*
X719286Y-1762286D01*
X719286Y-1714667D01*
X728809Y-1676571D01*
X738333Y-1657524D01*
X747857Y-1648000D01*
X766905Y-1638476D01*
X957381Y-1638476D02*
X976428Y-1638476D01*
X995476Y-1648000D01*
X1005000Y-1657524D01*
X1014524Y-1676571D01*
X1024048Y-1714667D01*
X1024048Y-1762286D01*
X1014524Y-1800381D01*
X1005000Y-1819428D01*
X995476Y-1828952D01*
X976428Y-1838476D01*
X957381Y-1838476D01*
X938333Y-1828952D01*
X928809Y-1819428D01*
X919286Y-1800381D01*
X909762Y-1762286D01*
X909762Y-1714667D01*
X919286Y-1676571D01*
X928809Y-1657524D01*
X938333Y-1648000D01*
X957381Y-1638476D01*
X1109762Y-1838476D02*
X1109762Y-1705143D01*
X1109762Y-1724190D02*
X1119286Y-1714667D01*
X1138333Y-1705143D01*
X1166905Y-1705143D01*
X1185952Y-1714667D01*
X1195476Y-1733714D01*
X1195476Y-1838476D01*
X1195476Y-1733714D02*
X1205000Y-1714667D01*
X1224048Y-1705143D01*
X1252619Y-1705143D01*
X1271667Y-1714667D01*
X1281190Y-1733714D01*
X1281190Y-1838476D01*
X1376429Y-1838476D02*
X1376429Y-1705143D01*
X1376429Y-1724190D02*
X1385952Y-1714667D01*
X1405000Y-1705143D01*
X1433571Y-1705143D01*
X1452619Y-1714667D01*
X1462143Y-1733714D01*
X1462143Y-1838476D01*
X1462143Y-1733714D02*
X1471667Y-1714667D01*
X1490714Y-1705143D01*
X1519286Y-1705143D01*
X1538333Y-1714667D01*
X1547857Y-1733714D01*
X1547857Y-1838476D01*
X1938333Y-1628952D02*
X1766905Y-1886095D01*
X2195476Y-1638476D02*
X2214524Y-1638476D01*
X2233571Y-1648000D01*
X2243095Y-1657524D01*
X2252619Y-1676571D01*
X2262143Y-1714667D01*
X2262143Y-1762286D01*
X2252619Y-1800381D01*
X2243095Y-1819428D01*
X2233571Y-1828952D01*
X2214524Y-1838476D01*
X2195476Y-1838476D01*
X2176429Y-1828952D01*
X2166905Y-1819428D01*
X2157381Y-1800381D01*
X2147857Y-1762286D01*
X2147857Y-1714667D01*
X2157381Y-1676571D01*
X2166905Y-1657524D01*
X2176429Y-1648000D01*
X2195476Y-1638476D01*
X2347857Y-1819428D02*
X2357381Y-1828952D01*
X2347857Y-1838476D01*
X2338333Y-1828952D01*
X2347857Y-1819428D01*
X2347857Y-1838476D01*
X2547857Y-1838476D02*
X2433571Y-1838476D01*
X2490714Y-1838476D02*
X2490714Y-1638476D01*
X2471667Y-1667048D01*
X2452619Y-1686095D01*
X2433571Y-1695619D01*
X2738333Y-1838476D02*
X2624048Y-1838476D01*
X2681190Y-1838476D02*
X2681190Y-1638476D01*
X2662143Y-1667048D01*
X2643095Y-1686095D01*
X2624048Y-1695619D01*
X2852619Y-1724190D02*
X2833571Y-1714667D01*
X2824048Y-1705143D01*
X2814524Y-1686095D01*
X2814524Y-1676571D01*
X2824048Y-1657524D01*
X2833571Y-1648000D01*
X2852619Y-1638476D01*
X2890714Y-1638476D01*
X2909762Y-1648000D01*
X2919286Y-1657524D01*
X2928809Y-1676571D01*
X2928809Y-1686095D01*
X2919286Y-1705143D01*
X2909762Y-1714667D01*
X2890714Y-1724190D01*
X2852619Y-1724190D01*
X2833571Y-1733714D01*
X2824048Y-1743238D01*
X2814524Y-1762286D01*
X2814524Y-1800381D01*
X2824048Y-1819428D01*
X2833571Y-1828952D01*
X2852619Y-1838476D01*
X2890714Y-1838476D01*
X2909762Y-1828952D01*
X2919286Y-1819428D01*
X2928809Y-1800381D01*
X2928809Y-1762286D01*
X2919286Y-1743238D01*
X2909762Y-1733714D01*
X2890714Y-1724190D01*
X3119286Y-1838476D02*
X3005000Y-1838476D01*
X3062143Y-1838476D02*
X3062143Y-1638476D01*
X3043095Y-1667048D01*
X3024048Y-1686095D01*
X3005000Y-1695619D01*
X3195476Y-1638476D02*
X3195476Y-1676571D01*
X3271667Y-1638476D02*
X3271667Y-1676571D01*
X3566905Y-1914667D02*
X3557381Y-1905143D01*
X3538333Y-1876571D01*
X3528809Y-1857524D01*
X3519286Y-1828952D01*
X3509762Y-1781333D01*
X3509762Y-1743238D01*
X3519286Y-1695619D01*
X3528809Y-1667048D01*
X3538333Y-1648000D01*
X3557381Y-1619428D01*
X3566905Y-1609905D01*
X3728809Y-1705143D02*
X3728809Y-1838476D01*
X3681190Y-1628952D02*
X3633571Y-1771809D01*
X3757381Y-1771809D01*
X3985952Y-1838476D02*
X3985952Y-1638476D01*
X4071667Y-1838476D02*
X4071667Y-1733714D01*
X4062143Y-1714667D01*
X4043095Y-1705143D01*
X4014524Y-1705143D01*
X3995476Y-1714667D01*
X3985952Y-1724190D01*
X4195476Y-1838476D02*
X4176428Y-1828952D01*
X4166905Y-1819428D01*
X4157381Y-1800381D01*
X4157381Y-1743238D01*
X4166905Y-1724190D01*
X4176428Y-1714667D01*
X4195476Y-1705143D01*
X4224048Y-1705143D01*
X4243095Y-1714667D01*
X4252619Y-1724190D01*
X4262143Y-1743238D01*
X4262143Y-1800381D01*
X4252619Y-1819428D01*
X4243095Y-1828952D01*
X4224048Y-1838476D01*
X4195476Y-1838476D01*
X4376429Y-1838476D02*
X4357381Y-1828952D01*
X4347857Y-1809905D01*
X4347857Y-1638476D01*
X4528810Y-1828952D02*
X4509762Y-1838476D01*
X4471667Y-1838476D01*
X4452619Y-1828952D01*
X4443095Y-1809905D01*
X4443095Y-1733714D01*
X4452619Y-1714667D01*
X4471667Y-1705143D01*
X4509762Y-1705143D01*
X4528810Y-1714667D01*
X4538333Y-1733714D01*
X4538333Y-1752762D01*
X4443095Y-1771809D01*
X4614524Y-1828952D02*
X4633571Y-1838476D01*
X4671667Y-1838476D01*
X4690714Y-1828952D01*
X4700238Y-1809905D01*
X4700238Y-1800381D01*
X4690714Y-1781333D01*
X4671667Y-1771809D01*
X4643095Y-1771809D01*
X4624048Y-1762286D01*
X4614524Y-1743238D01*
X4614524Y-1733714D01*
X4624048Y-1714667D01*
X4643095Y-1705143D01*
X4671667Y-1705143D01*
X4690714Y-1714667D01*
X4766905Y-1914667D02*
X4776429Y-1905143D01*
X4795476Y-1876571D01*
X4805000Y-1857524D01*
X4814524Y-1828952D01*
X4824048Y-1781333D01*
X4824048Y-1743238D01*
X4814524Y-1695619D01*
X4805000Y-1667048D01*
X4795476Y-1648000D01*
X4776429Y-1619428D01*
X4766905Y-1609905D01*
X5128810Y-1914667D02*
X5119286Y-1905143D01*
X5100238Y-1876571D01*
X5090714Y-1857524D01*
X5081190Y-1828952D01*
X5071667Y-1781333D01*
X5071667Y-1743238D01*
X5081190Y-1695619D01*
X5090714Y-1667048D01*
X5100238Y-1648000D01*
X5119286Y-1619428D01*
X5128810Y-1609905D01*
X5205000Y-1705143D02*
X5205000Y-1838476D01*
X5205000Y-1724190D02*
X5214524Y-1714667D01*
X5233571Y-1705143D01*
X5262143Y-1705143D01*
X5281190Y-1714667D01*
X5290714Y-1733714D01*
X5290714Y-1838476D01*
X5414524Y-1838476D02*
X5395476Y-1828952D01*
X5385952Y-1819428D01*
X5376429Y-1800381D01*
X5376429Y-1743238D01*
X5385952Y-1724190D01*
X5395476Y-1714667D01*
X5414524Y-1705143D01*
X5443095Y-1705143D01*
X5462143Y-1714667D01*
X5471667Y-1724190D01*
X5481190Y-1743238D01*
X5481190Y-1800381D01*
X5471667Y-1819428D01*
X5462143Y-1828952D01*
X5443095Y-1838476D01*
X5414524Y-1838476D01*
X5538333Y-1705143D02*
X5614524Y-1705143D01*
X5566905Y-1638476D02*
X5566905Y-1809905D01*
X5576429Y-1828952D01*
X5595476Y-1838476D01*
X5614524Y-1838476D01*
X5833571Y-1705143D02*
X5833571Y-1905143D01*
X5833571Y-1714667D02*
X5852619Y-1705143D01*
X5890714Y-1705143D01*
X5909762Y-1714667D01*
X5919286Y-1724190D01*
X5928809Y-1743238D01*
X5928809Y-1800381D01*
X5919286Y-1819428D01*
X5909762Y-1828952D01*
X5890714Y-1838476D01*
X5852619Y-1838476D01*
X5833571Y-1828952D01*
X6043095Y-1838476D02*
X6024048Y-1828952D01*
X6014524Y-1809905D01*
X6014524Y-1638476D01*
X6205000Y-1838476D02*
X6205000Y-1733714D01*
X6195476Y-1714667D01*
X6176428Y-1705143D01*
X6138333Y-1705143D01*
X6119286Y-1714667D01*
X6205000Y-1828952D02*
X6185952Y-1838476D01*
X6138333Y-1838476D01*
X6119286Y-1828952D01*
X6109762Y-1809905D01*
X6109762Y-1790857D01*
X6119286Y-1771809D01*
X6138333Y-1762286D01*
X6185952Y-1762286D01*
X6205000Y-1752762D01*
X6271667Y-1705143D02*
X6347857Y-1705143D01*
X6300238Y-1638476D02*
X6300238Y-1809905D01*
X6309762Y-1828952D01*
X6328809Y-1838476D01*
X6347857Y-1838476D01*
X6490714Y-1828952D02*
X6471667Y-1838476D01*
X6433571Y-1838476D01*
X6414524Y-1828952D01*
X6405000Y-1809905D01*
X6405000Y-1733714D01*
X6414524Y-1714667D01*
X6433571Y-1705143D01*
X6471667Y-1705143D01*
X6490714Y-1714667D01*
X6500238Y-1733714D01*
X6500238Y-1752762D01*
X6405000Y-1771809D01*
X6671667Y-1838476D02*
X6671667Y-1638476D01*
X6671667Y-1828952D02*
X6652619Y-1838476D01*
X6614524Y-1838476D01*
X6595476Y-1828952D01*
X6585952Y-1819428D01*
X6576428Y-1800381D01*
X6576428Y-1743238D01*
X6585952Y-1724190D01*
X6595476Y-1714667D01*
X6614524Y-1705143D01*
X6652619Y-1705143D01*
X6671667Y-1714667D01*
X6747857Y-1914667D02*
X6757381Y-1905143D01*
X6776428Y-1876571D01*
X6785952Y-1857524D01*
X6795476Y-1828952D01*
X6805000Y-1781333D01*
X6805000Y-1743238D01*
X6795476Y-1695619D01*
X6785952Y-1667048D01*
X6776428Y-1648000D01*
X6757381Y-1619428D01*
X6747857Y-1609905D01*
X-205000Y-1968000D02*
X-5000Y-2168000D01*
X-5000Y-1968000D02*
X-205000Y-2168000D01*
X-5000Y-2068000D02*
G75*
G03*
X-5000Y-2068000I-100000J0D01*
G01*
X338333Y-2025143D02*
X338333Y-2158476D01*
X290714Y-1948952D02*
X243095Y-2091809D01*
X366905Y-2091809D01*
X443095Y-2139429D02*
X452619Y-2148952D01*
X443095Y-2158476D01*
X433571Y-2148952D01*
X443095Y-2139429D01*
X443095Y-2158476D01*
X576429Y-1958476D02*
X595476Y-1958476D01*
X614524Y-1968000D01*
X624048Y-1977524D01*
X633571Y-1996571D01*
X643095Y-2034667D01*
X643095Y-2082286D01*
X633571Y-2120381D01*
X624048Y-2139429D01*
X614524Y-2148952D01*
X595476Y-2158476D01*
X576429Y-2158476D01*
X557381Y-2148952D01*
X547857Y-2139429D01*
X538333Y-2120381D01*
X528810Y-2082286D01*
X528810Y-2034667D01*
X538333Y-1996571D01*
X547857Y-1977524D01*
X557381Y-1968000D01*
X576429Y-1958476D01*
X766905Y-1958476D02*
X785952Y-1958476D01*
X805000Y-1968000D01*
X814524Y-1977524D01*
X824048Y-1996571D01*
X833571Y-2034667D01*
X833571Y-2082286D01*
X824048Y-2120381D01*
X814524Y-2139429D01*
X805000Y-2148952D01*
X785952Y-2158476D01*
X766905Y-2158476D01*
X747857Y-2148952D01*
X738333Y-2139429D01*
X728809Y-2120381D01*
X719286Y-2082286D01*
X719286Y-2034667D01*
X728809Y-1996571D01*
X738333Y-1977524D01*
X747857Y-1968000D01*
X766905Y-1958476D01*
X957381Y-1958476D02*
X976428Y-1958476D01*
X995476Y-1968000D01*
X1005000Y-1977524D01*
X1014524Y-1996571D01*
X1024048Y-2034667D01*
X1024048Y-2082286D01*
X1014524Y-2120381D01*
X1005000Y-2139429D01*
X995476Y-2148952D01*
X976428Y-2158476D01*
X957381Y-2158476D01*
X938333Y-2148952D01*
X928809Y-2139429D01*
X919286Y-2120381D01*
X909762Y-2082286D01*
X909762Y-2034667D01*
X919286Y-1996571D01*
X928809Y-1977524D01*
X938333Y-1968000D01*
X957381Y-1958476D01*
X1109762Y-2158476D02*
X1109762Y-2025143D01*
X1109762Y-2044190D02*
X1119286Y-2034667D01*
X1138333Y-2025143D01*
X1166905Y-2025143D01*
X1185952Y-2034667D01*
X1195476Y-2053714D01*
X1195476Y-2158476D01*
X1195476Y-2053714D02*
X1205000Y-2034667D01*
X1224048Y-2025143D01*
X1252619Y-2025143D01*
X1271667Y-2034667D01*
X1281190Y-2053714D01*
X1281190Y-2158476D01*
X1376429Y-2158476D02*
X1376429Y-2025143D01*
X1376429Y-2044190D02*
X1385952Y-2034667D01*
X1405000Y-2025143D01*
X1433571Y-2025143D01*
X1452619Y-2034667D01*
X1462143Y-2053714D01*
X1462143Y-2158476D01*
X1462143Y-2053714D02*
X1471667Y-2034667D01*
X1490714Y-2025143D01*
X1519286Y-2025143D01*
X1538333Y-2034667D01*
X1547857Y-2053714D01*
X1547857Y-2158476D01*
X1938333Y-1948952D02*
X1766905Y-2206095D01*
X2195476Y-1958476D02*
X2214524Y-1958476D01*
X2233571Y-1968000D01*
X2243095Y-1977524D01*
X2252619Y-1996571D01*
X2262143Y-2034667D01*
X2262143Y-2082286D01*
X2252619Y-2120381D01*
X2243095Y-2139429D01*
X2233571Y-2148952D01*
X2214524Y-2158476D01*
X2195476Y-2158476D01*
X2176429Y-2148952D01*
X2166905Y-2139429D01*
X2157381Y-2120381D01*
X2147857Y-2082286D01*
X2147857Y-2034667D01*
X2157381Y-1996571D01*
X2166905Y-1977524D01*
X2176429Y-1968000D01*
X2195476Y-1958476D01*
X2347857Y-2139429D02*
X2357381Y-2148952D01*
X2347857Y-2158476D01*
X2338333Y-2148952D01*
X2347857Y-2139429D01*
X2347857Y-2158476D01*
X2547857Y-2158476D02*
X2433571Y-2158476D01*
X2490714Y-2158476D02*
X2490714Y-1958476D01*
X2471667Y-1987048D01*
X2452619Y-2006095D01*
X2433571Y-2015619D01*
X2728810Y-1958476D02*
X2633571Y-1958476D01*
X2624048Y-2053714D01*
X2633571Y-2044190D01*
X2652619Y-2034667D01*
X2700238Y-2034667D01*
X2719286Y-2044190D01*
X2728810Y-2053714D01*
X2738333Y-2072762D01*
X2738333Y-2120381D01*
X2728810Y-2139429D01*
X2719286Y-2148952D01*
X2700238Y-2158476D01*
X2652619Y-2158476D01*
X2633571Y-2148952D01*
X2624048Y-2139429D01*
X2805000Y-1958476D02*
X2938333Y-1958476D01*
X2852619Y-2158476D01*
X3109762Y-1958476D02*
X3014524Y-1958476D01*
X3005000Y-2053714D01*
X3014524Y-2044190D01*
X3033571Y-2034667D01*
X3081190Y-2034667D01*
X3100238Y-2044190D01*
X3109762Y-2053714D01*
X3119286Y-2072762D01*
X3119286Y-2120381D01*
X3109762Y-2139429D01*
X3100238Y-2148952D01*
X3081190Y-2158476D01*
X3033571Y-2158476D01*
X3014524Y-2148952D01*
X3005000Y-2139429D01*
X3195476Y-1958476D02*
X3195476Y-1996571D01*
X3271667Y-1958476D02*
X3271667Y-1996571D01*
X3566905Y-2234667D02*
X3557381Y-2225143D01*
X3538333Y-2196571D01*
X3528809Y-2177524D01*
X3519286Y-2148952D01*
X3509762Y-2101333D01*
X3509762Y-2063238D01*
X3519286Y-2015619D01*
X3528809Y-1987048D01*
X3538333Y-1968000D01*
X3557381Y-1939428D01*
X3566905Y-1929905D01*
X3633571Y-1977524D02*
X3643095Y-1968000D01*
X3662143Y-1958476D01*
X3709762Y-1958476D01*
X3728809Y-1968000D01*
X3738333Y-1977524D01*
X3747857Y-1996571D01*
X3747857Y-2015619D01*
X3738333Y-2044190D01*
X3624048Y-2158476D01*
X3747857Y-2158476D01*
X3985952Y-2158476D02*
X3985952Y-1958476D01*
X4071667Y-2158476D02*
X4071667Y-2053714D01*
X4062143Y-2034667D01*
X4043095Y-2025143D01*
X4014524Y-2025143D01*
X3995476Y-2034667D01*
X3985952Y-2044190D01*
X4195476Y-2158476D02*
X4176428Y-2148952D01*
X4166905Y-2139429D01*
X4157381Y-2120381D01*
X4157381Y-2063238D01*
X4166905Y-2044190D01*
X4176428Y-2034667D01*
X4195476Y-2025143D01*
X4224048Y-2025143D01*
X4243095Y-2034667D01*
X4252619Y-2044190D01*
X4262143Y-2063238D01*
X4262143Y-2120381D01*
X4252619Y-2139429D01*
X4243095Y-2148952D01*
X4224048Y-2158476D01*
X4195476Y-2158476D01*
X4376429Y-2158476D02*
X4357381Y-2148952D01*
X4347857Y-2129905D01*
X4347857Y-1958476D01*
X4528810Y-2148952D02*
X4509762Y-2158476D01*
X4471667Y-2158476D01*
X4452619Y-2148952D01*
X4443095Y-2129905D01*
X4443095Y-2053714D01*
X4452619Y-2034667D01*
X4471667Y-2025143D01*
X4509762Y-2025143D01*
X4528810Y-2034667D01*
X4538333Y-2053714D01*
X4538333Y-2072762D01*
X4443095Y-2091809D01*
X4614524Y-2148952D02*
X4633571Y-2158476D01*
X4671667Y-2158476D01*
X4690714Y-2148952D01*
X4700238Y-2129905D01*
X4700238Y-2120381D01*
X4690714Y-2101333D01*
X4671667Y-2091809D01*
X4643095Y-2091809D01*
X4624048Y-2082286D01*
X4614524Y-2063238D01*
X4614524Y-2053714D01*
X4624048Y-2034667D01*
X4643095Y-2025143D01*
X4671667Y-2025143D01*
X4690714Y-2034667D01*
X4766905Y-2234667D02*
X4776429Y-2225143D01*
X4795476Y-2196571D01*
X4805000Y-2177524D01*
X4814524Y-2148952D01*
X4824048Y-2101333D01*
X4824048Y-2063238D01*
X4814524Y-2015619D01*
X4805000Y-1987048D01*
X4795476Y-1968000D01*
X4776429Y-1939428D01*
X4766905Y-1929905D01*
X5128810Y-2234667D02*
X5119286Y-2225143D01*
X5100238Y-2196571D01*
X5090714Y-2177524D01*
X5081190Y-2148952D01*
X5071667Y-2101333D01*
X5071667Y-2063238D01*
X5081190Y-2015619D01*
X5090714Y-1987048D01*
X5100238Y-1968000D01*
X5119286Y-1939428D01*
X5128810Y-1929905D01*
X5205000Y-2025143D02*
X5205000Y-2158476D01*
X5205000Y-2044190D02*
X5214524Y-2034667D01*
X5233571Y-2025143D01*
X5262143Y-2025143D01*
X5281190Y-2034667D01*
X5290714Y-2053714D01*
X5290714Y-2158476D01*
X5414524Y-2158476D02*
X5395476Y-2148952D01*
X5385952Y-2139429D01*
X5376429Y-2120381D01*
X5376429Y-2063238D01*
X5385952Y-2044190D01*
X5395476Y-2034667D01*
X5414524Y-2025143D01*
X5443095Y-2025143D01*
X5462143Y-2034667D01*
X5471667Y-2044190D01*
X5481190Y-2063238D01*
X5481190Y-2120381D01*
X5471667Y-2139429D01*
X5462143Y-2148952D01*
X5443095Y-2158476D01*
X5414524Y-2158476D01*
X5538333Y-2025143D02*
X5614524Y-2025143D01*
X5566905Y-1958476D02*
X5566905Y-2129905D01*
X5576429Y-2148952D01*
X5595476Y-2158476D01*
X5614524Y-2158476D01*
X5833571Y-2025143D02*
X5833571Y-2225143D01*
X5833571Y-2034667D02*
X5852619Y-2025143D01*
X5890714Y-2025143D01*
X5909762Y-2034667D01*
X5919286Y-2044190D01*
X5928809Y-2063238D01*
X5928809Y-2120381D01*
X5919286Y-2139429D01*
X5909762Y-2148952D01*
X5890714Y-2158476D01*
X5852619Y-2158476D01*
X5833571Y-2148952D01*
X6043095Y-2158476D02*
X6024048Y-2148952D01*
X6014524Y-2129905D01*
X6014524Y-1958476D01*
X6205000Y-2158476D02*
X6205000Y-2053714D01*
X6195476Y-2034667D01*
X6176428Y-2025143D01*
X6138333Y-2025143D01*
X6119286Y-2034667D01*
X6205000Y-2148952D02*
X6185952Y-2158476D01*
X6138333Y-2158476D01*
X6119286Y-2148952D01*
X6109762Y-2129905D01*
X6109762Y-2110857D01*
X6119286Y-2091809D01*
X6138333Y-2082286D01*
X6185952Y-2082286D01*
X6205000Y-2072762D01*
X6271667Y-2025143D02*
X6347857Y-2025143D01*
X6300238Y-1958476D02*
X6300238Y-2129905D01*
X6309762Y-2148952D01*
X6328809Y-2158476D01*
X6347857Y-2158476D01*
X6490714Y-2148952D02*
X6471667Y-2158476D01*
X6433571Y-2158476D01*
X6414524Y-2148952D01*
X6405000Y-2129905D01*
X6405000Y-2053714D01*
X6414524Y-2034667D01*
X6433571Y-2025143D01*
X6471667Y-2025143D01*
X6490714Y-2034667D01*
X6500238Y-2053714D01*
X6500238Y-2072762D01*
X6405000Y-2091809D01*
X6671667Y-2158476D02*
X6671667Y-1958476D01*
X6671667Y-2148952D02*
X6652619Y-2158476D01*
X6614524Y-2158476D01*
X6595476Y-2148952D01*
X6585952Y-2139429D01*
X6576428Y-2120381D01*
X6576428Y-2063238D01*
X6585952Y-2044190D01*
X6595476Y-2034667D01*
X6614524Y-2025143D01*
X6652619Y-2025143D01*
X6671667Y-2034667D01*
X6747857Y-2234667D02*
X6757381Y-2225143D01*
X6776428Y-2196571D01*
X6785952Y-2177524D01*
X6795476Y-2148952D01*
X6805000Y-2101333D01*
X6805000Y-2063238D01*
X6795476Y-2015619D01*
X6785952Y-1987048D01*
X6776428Y-1968000D01*
X6757381Y-1939428D01*
X6747857Y-1929905D01*
M02*
