M48
; DRILL file {KiCad (6.0.2)} date Fri Mar 11 19:19:30 2022
; FORMAT={-:-/ absolute / metric / decimal}
; #@! TF.CreationDate,2022-03-11T19:19:30+08:00
; #@! TF.GenerationSoftware,Kicad,Pcbnew,(6.0.2)
; #@! TF.FileFunction,MixedPlating,1,2
FMAT,2
METRIC
; #@! TA.AperFunction,Plated,PTH,ComponentDrill
T1C1.100
; #@! TA.AperFunction,Plated,PTH,ComponentDrill
T2C1.300
; #@! TA.AperFunction,Plated,PTH,ComponentDrill
T3C1.500
; #@! TA.AperFunction,NonPlated,NPTH,ComponentDrill
T4C1.850
; #@! TA.AperFunction,NonPlated,NPTH,ComponentDrill
T5C3.000
; #@! TA.AperFunction,NonPlated,NPTH,ComponentDrill
T6C4.000
%
G90
G05
T2
X22.86Y37.35
X22.86Y22.85
X23.76Y59.55
X23.76Y45.05
X25.4Y22.85
X26.3Y45.05
X27.94Y37.35
X27.94Y22.85
X28.84Y59.55
X28.84Y45.05
T4
X45.62Y29.7
X46.12Y52.1
X55.78Y29.7
X56.28Y52.1
T5
X48.16Y24.62
X48.66Y47.02
X54.51Y27.16
X55.01Y49.56
T6
X50.7Y29.7
X51.2Y52.1
T1
G00X40.0Y98.7
M15
G01X40.0Y98.7
M16
G05
G00X40.0Y96.16
M15
G01X40.0Y96.16
M16
G05
G00X40.0Y93.62
M15
G01X40.0Y93.62
M16
G05
G00X40.0Y91.08
M15
G01X40.0Y91.08
M16
G05
G00X40.0Y88.54
M15
G01X40.0Y88.54
M16
G05
G00X40.0Y86.0
M15
G01X40.0Y86.0
M16
G05
G00X40.0Y83.46
M15
G01X40.0Y83.46
M16
G05
G00X40.0Y80.92
M15
G01X40.0Y80.92
M16
G05
G00X40.0Y78.38
M15
G01X40.0Y78.38
M16
G05
G00X40.0Y75.84
M15
G01X40.0Y75.84
M16
G05
G00X40.0Y73.3
M15
G01X40.0Y73.3
M16
G05
G00X40.0Y70.76
M15
G01X40.0Y70.76
M16
G05
G00X42.54Y88.54
M15
G01X42.54Y88.54
M16
G05
G00X42.54Y70.76
M15
G01X42.54Y70.76
M16
G05
G00X45.08Y70.76
M15
G01X45.08Y70.76
M16
G05
G00X47.62Y70.76
M15
G01X47.62Y70.76
M16
G05
G00X50.16Y70.76
M15
G01X50.16Y70.76
M16
G05
G00X52.7Y88.54
M15
G01X52.7Y88.54
M16
G05
G00X52.7Y70.76
M15
G01X52.7Y70.76
M16
G05
G00X55.24Y98.7
M15
G01X55.24Y98.7
M16
G05
G00X55.24Y96.16
M15
G01X55.24Y96.16
M16
G05
G00X55.24Y93.62
M15
G01X55.24Y93.62
M16
G05
G00X55.24Y91.08
M15
G01X55.24Y91.08
M16
G05
G00X55.24Y88.54
M15
G01X55.24Y88.54
M16
G05
G00X55.24Y86.0
M15
G01X55.24Y86.0
M16
G05
G00X55.24Y83.46
M15
G01X55.24Y83.46
M16
G05
G00X55.24Y80.92
M15
G01X55.24Y80.92
M16
G05
G00X55.24Y78.38
M15
G01X55.24Y78.38
M16
G05
G00X55.24Y75.84
M15
G01X55.24Y75.84
M16
G05
G00X55.24Y73.3
M15
G01X55.24Y73.3
M16
G05
G00X55.24Y70.76
M15
G01X55.24Y70.76
M16
G05
T3
G00X19.9Y29.6
M15
G01X19.9Y31.1
M16
G05
G00X20.8Y51.8
M15
G01X20.8Y53.3
M16
G05
G00X30.9Y29.6
M15
G01X30.9Y31.1
M16
G05
G00X31.8Y51.8
M15
G01X31.8Y53.3
M16
G05
T0
M30
