  0
SECTION
  2
HEADER
  9
$ACADVER
  1
AC1009
  9
$FILLMODE
 70
 0
  9
$SPLFRAME
 70
 1
  9
$EXTMIN
 10
0
 20
0
 30
0.0
  9
$EXTMAX
 10
1058.33
 20
1058.33
 30
0.0
  0
ENDSEC
  0
SECTION
  2
TABLES
  0
TABLE
  2
LAYER
 70
1
  0
LAYER
  2
0
 70
     0
 62
     7
  6
CONTINUOUS
  0
ENDTAB
  0
ENDSEC
  0
SECTION
  2
ENTITIES
  0
LINE
  8
0
 62
     0
 10
191.346
 20
124.788
 30
0.0
 11
191.502
 21
124.781
 31
0.0
  0
LINE
  8
0
 62
     0
 10
191.502
 20
124.781
 30
0.0
 11
191.659
 21
124.763
 31
0.0
  0
LINE
  8
0
 62
     0
 10
191.659
 20
124.763
 30
0.0
 11
191.812
 21
124.733
 31
0.0
  0
LINE
  8
0
 62
     0
 10
191.812
 20
124.733
 30
0.0
 11
191.965
 21
124.69
 31
0.0
  0
LINE
  8
0
 62
     0
 10
191.965
 20
124.69
 30
0.0
 11
192.111
 21
124.635
 31
0.0
  0
LINE
  8
0
 62
     0
 10
192.111
 20
124.635
 30
0.0
 11
192.253
 21
124.57
 31
0.0
  0
LINE
  8
0
 62
     0
 10
192.253
 20
124.57
 30
0.0
 11
192.391
 21
124.494
 31
0.0
  0
LINE
  8
0
 62
     0
 10
192.391
 20
124.494
 30
0.0
 11
192.521
 21
124.406
 31
0.0
  0
LINE
  8
0
 62
     0
 10
192.521
 20
124.406
 30
0.0
 11
192.644
 21
124.309
 31
0.0
  0
LINE
  8
0
 62
     0
 10
192.644
 20
124.309
 30
0.0
 11
192.76
 21
124.202
 31
0.0
  0
LINE
  8
0
 62
     0
 10
192.76
 20
124.202
 30
0.0
 11
192.866
 21
124.087
 31
0.0
  0
LINE
  8
0
 62
     0
 10
192.866
 20
124.087
 30
0.0
 11
192.964
 21
123.964
 31
0.0
  0
LINE
  8
0
 62
     0
 10
192.964
 20
123.964
 30
0.0
 11
193.052
 21
123.833
 31
0.0
  0
LINE
  8
0
 62
     0
 10
193.052
 20
123.833
 30
0.0
 11
193.128
 21
123.696
 31
0.0
  0
LINE
  8
0
 62
     0
 10
193.128
 20
123.696
 30
0.0
 11
193.194
 21
123.553
 31
0.0
  0
LINE
  8
0
 62
     0
 10
193.194
 20
123.553
 30
0.0
 11
193.248
 21
123.407
 31
0.0
  0
LINE
  8
0
 62
     0
 10
193.248
 20
123.407
 30
0.0
 11
193.29
 21
123.255
 31
0.0
  0
LINE
  8
0
 62
     0
 10
193.29
 20
123.255
 30
0.0
 11
193.321
 21
123.101
 31
0.0
  0
LINE
  8
0
 62
     0
 10
193.321
 20
123.101
 30
0.0
 11
193.34
 21
122.944
 31
0.0
  0
LINE
  8
0
 62
     0
 10
193.34
 20
122.944
 30
0.0
 11
193.347
 21
122.787
 31
0.0
  0
LINE
  8
0
 62
     0
 10
193.347
 20
122.787
 30
0.0
 11
193.347
 21
2.31235
 31
0.0
  0
LINE
  8
0
 62
     0
 10
193.347
 20
2.31235
 30
0.0
 11
193.34
 21
2.15525
 31
0.0
  0
LINE
  8
0
 62
     0
 10
193.34
 20
2.15525
 30
0.0
 11
193.321
 21
1.99953
 31
0.0
  0
LINE
  8
0
 62
     0
 10
193.321
 20
1.99953
 30
0.0
 11
193.29
 21
1.84519
 31
0.0
  0
LINE
  8
0
 62
     0
 10
193.29
 20
1.84519
 30
0.0
 11
193.248
 21
1.69361
 31
0.0
  0
LINE
  8
0
 62
     0
 10
193.248
 20
1.69361
 30
0.0
 11
193.194
 21
1.54616
 31
0.0
  0
LINE
  8
0
 62
     0
 10
193.194
 20
1.54616
 30
0.0
 11
193.128
 21
1.40422
 31
0.0
  0
LINE
  8
0
 62
     0
 10
193.128
 20
1.40422
 30
0.0
 11
193.052
 21
1.2678
 31
0.0
  0
LINE
  8
0
 62
     0
 10
193.052
 20
1.2678
 30
0.0
 11
192.964
 21
1.13688
 31
0.0
  0
LINE
  8
0
 62
     0
 10
192.964
 20
1.13688
 30
0.0
 11
192.866
 21
1.01424
 31
0.0
  0
LINE
  8
0
 62
     0
 10
192.866
 20
1.01424
 30
0.0
 11
192.76
 21
0.898483
 31
0.0
  0
LINE
  8
0
 62
     0
 10
192.76
 20
0.898483
 30
0.0
 11
192.644
 21
0.792371
 31
0.0
  0
LINE
  8
0
 62
     0
 10
192.644
 20
0.792371
 30
0.0
 11
192.521
 21
0.694531
 31
0.0
  0
LINE
  8
0
 62
     0
 10
192.521
 20
0.694531
 30
0.0
 11
192.391
 21
0.606337
 31
0.0
  0
LINE
  8
0
 62
     0
 10
192.391
 20
0.606337
 30
0.0
 11
192.253
 21
0.529167
 31
0.0
  0
LINE
  8
0
 62
     0
 10
192.253
 20
0.529167
 30
0.0
 11
192.111
 21
0.4644
 31
0.0
  0
LINE
  8
0
 62
     0
 10
192.111
 20
0.4644
 30
0.0
 11
191.965
 21
0.410655
 31
0.0
  0
LINE
  8
0
 62
     0
 10
191.965
 20
0.410655
 30
0.0
 11
191.812
 21
0.369316
 31
0.0
  0
LINE
  8
0
 62
     0
 10
191.812
 20
0.369316
 30
0.0
 11
191.659
 21
0.336241
 31
0.0
  0
LINE
  8
0
 62
     0
 10
191.659
 20
0.336241
 30
0.0
 11
191.502
 21
0.318327
 31
0.0
  0
LINE
  8
0
 62
     0
 10
191.502
 20
0.318327
 30
0.0
 11
191.346
 21
0.311437
 31
0.0
  0
LINE
  8
0
 62
     0
 10
191.346
 20
0.311437
 30
0.0
 11
2.096
 21
0.311437
 31
0.0
  0
LINE
  8
0
 62
     0
 10
2.096
 20
0.311437
 30
0.0
 11
1.9389
 21
0.318327
 31
0.0
  0
LINE
  8
0
 62
     0
 10
1.9389
 20
0.318327
 30
0.0
 11
1.7818
 21
0.336241
 31
0.0
  0
LINE
  8
0
 62
     0
 10
1.7818
 20
0.336241
 30
0.0
 11
1.62884
 21
0.369316
 31
0.0
  0
LINE
  8
0
 62
     0
 10
1.62884
 20
0.369316
 30
0.0
 11
1.47588
 21
0.410655
 31
0.0
  0
LINE
  8
0
 62
     0
 10
1.47588
 20
0.410655
 30
0.0
 11
1.32981
 21
0.4644
 31
0.0
  0
LINE
  8
0
 62
     0
 10
1.32981
 20
0.4644
 30
0.0
 11
1.18787
 21
0.529167
 31
0.0
  0
LINE
  8
0
 62
     0
 10
1.18787
 20
0.529167
 30
0.0
 11
1.05006
 21
0.606337
 31
0.0
  0
LINE
  8
0
 62
     0
 10
1.05006
 20
0.606337
 30
0.0
 11
0.919152
 21
0.694531
 31
0.0
  0
LINE
  8
0
 62
     0
 10
0.919152
 20
0.694531
 30
0.0
 11
0.796505
 21
0.792371
 31
0.0
  0
LINE
  8
0
 62
     0
 10
0.796505
 20
0.792371
 30
0.0
 11
0.680752
 21
0.898483
 31
0.0
  0
LINE
  8
0
 62
     0
 10
0.680752
 20
0.898483
 30
0.0
 11
0.574643
 21
1.01424
 31
0.0
  0
LINE
  8
0
 62
     0
 10
0.574643
 20
1.01424
 30
0.0
 11
0.4768
 21
1.13688
 31
0.0
  0
LINE
  8
0
 62
     0
 10
0.4768
 20
1.13688
 30
0.0
 11
0.389985
 21
1.2678
 31
0.0
  0
LINE
  8
0
 62
     0
 10
0.389985
 20
1.2678
 30
0.0
 11
0.312815
 21
1.40422
 31
0.0
  0
LINE
  8
0
 62
     0
 10
0.312815
 20
1.40422
 30
0.0
 11
0.248047
 21
1.54616
 31
0.0
  0
LINE
  8
0
 62
     0
 10
0.248047
 20
1.54616
 30
0.0
 11
0.192925
 21
1.69361
 31
0.0
  0
LINE
  8
0
 62
     0
 10
0.192925
 20
1.69361
 30
0.0
 11
0.150206
 21
1.84519
 31
0.0
  0
LINE
  8
0
 62
     0
 10
0.150206
 20
1.84519
 30
0.0
 11
0.119889
 21
1.99953
 31
0.0
  0
LINE
  8
0
 62
     0
 10
0.119889
 20
1.99953
 30
0.0
 11
0.101975
 21
2.15525
 31
0.0
  0
LINE
  8
0
 62
     0
 10
0.101975
 20
2.15525
 30
0.0
 11
0.0950846
 21
2.31235
 31
0.0
  0
LINE
  8
0
 62
     0
 10
0.0950846
 20
2.31235
 30
0.0
 11
0.0950846
 21
122.787
 31
0.0
  0
LINE
  8
0
 62
     0
 10
0.0950846
 20
122.787
 30
0.0
 11
0.101975
 21
122.944
 31
0.0
  0
LINE
  8
0
 62
     0
 10
0.101975
 20
122.944
 30
0.0
 11
0.119889
 21
123.101
 31
0.0
  0
LINE
  8
0
 62
     0
 10
0.119889
 20
123.101
 30
0.0
 11
0.150206
 21
123.255
 31
0.0
  0
LINE
  8
0
 62
     0
 10
0.150206
 20
123.255
 30
0.0
 11
0.192925
 21
123.407
 31
0.0
  0
LINE
  8
0
 62
     0
 10
0.192925
 20
123.407
 30
0.0
 11
0.248047
 21
123.553
 31
0.0
  0
LINE
  8
0
 62
     0
 10
0.248047
 20
123.553
 30
0.0
 11
0.312815
 21
123.696
 31
0.0
  0
LINE
  8
0
 62
     0
 10
0.312815
 20
123.696
 30
0.0
 11
0.389985
 21
123.833
 31
0.0
  0
LINE
  8
0
 62
     0
 10
0.389985
 20
123.833
 30
0.0
 11
0.4768
 21
123.964
 31
0.0
  0
LINE
  8
0
 62
     0
 10
0.4768
 20
123.964
 30
0.0
 11
0.574643
 21
124.087
 31
0.0
  0
LINE
  8
0
 62
     0
 10
0.574643
 20
124.087
 30
0.0
 11
0.680752
 21
124.202
 31
0.0
  0
LINE
  8
0
 62
     0
 10
0.680752
 20
124.202
 30
0.0
 11
0.796505
 21
124.309
 31
0.0
  0
LINE
  8
0
 62
     0
 10
0.796505
 20
124.309
 30
0.0
 11
0.919152
 21
124.406
 31
0.0
  0
LINE
  8
0
 62
     0
 10
0.919152
 20
124.406
 30
0.0
 11
1.05006
 21
124.494
 31
0.0
  0
LINE
  8
0
 62
     0
 10
1.05006
 20
124.494
 30
0.0
 11
1.18787
 21
124.57
 31
0.0
  0
LINE
  8
0
 62
     0
 10
1.18787
 20
124.57
 30
0.0
 11
1.32981
 21
124.635
 31
0.0
  0
LINE
  8
0
 62
     0
 10
1.32981
 20
124.635
 30
0.0
 11
1.47588
 21
124.69
 31
0.0
  0
LINE
  8
0
 62
     0
 10
1.47588
 20
124.69
 30
0.0
 11
1.62884
 21
124.733
 31
0.0
  0
LINE
  8
0
 62
     0
 10
1.62884
 20
124.733
 30
0.0
 11
1.7818
 21
124.763
 31
0.0
  0
LINE
  8
0
 62
     0
 10
1.7818
 20
124.763
 30
0.0
 11
1.9389
 21
124.781
 31
0.0
  0
LINE
  8
0
 62
     0
 10
1.9389
 20
124.781
 30
0.0
 11
2.096
 21
124.788
 31
0.0
  0
LINE
  8
0
 62
     0
 10
2.096
 20
124.788
 30
0.0
 11
191.346
 21
124.788
 31
0.0
  0
LINE
  8
0
 62
     0
 10
188.867
 20
5.78637
 30
0.0
 11
188.434
 21
5.56588
 31
0.0
  0
LINE
  8
0
 62
     0
 10
188.434
 20
5.56588
 30
0.0
 11
188.093
 21
5.22415
 31
0.0
  0
LINE
  8
0
 62
     0
 10
188.093
 20
5.22415
 30
0.0
 11
187.872
 21
4.79143
 31
0.0
  0
LINE
  8
0
 62
     0
 10
187.872
 20
4.79143
 30
0.0
 11
187.796
 21
4.3119
 31
0.0
  0
LINE
  8
0
 62
     0
 10
187.796
 20
4.3119
 30
0.0
 11
187.872
 21
3.83371
 31
0.0
  0
LINE
  8
0
 62
     0
 10
187.872
 20
3.83371
 30
0.0
 11
188.093
 21
3.401
 31
0.0
  0
LINE
  8
0
 62
     0
 10
188.093
 20
3.401
 30
0.0
 11
188.434
 21
3.05925
 31
0.0
  0
LINE
  8
0
 62
     0
 10
188.434
 20
3.05925
 30
0.0
 11
188.867
 21
2.83738
 31
0.0
  0
LINE
  8
0
 62
     0
 10
188.867
 20
2.83738
 30
0.0
 11
189.346
 21
2.76159
 31
0.0
  0
LINE
  8
0
 62
     0
 10
189.346
 20
2.76159
 30
0.0
 11
189.825
 21
2.83738
 31
0.0
  0
LINE
  8
0
 62
     0
 10
189.825
 20
2.83738
 30
0.0
 11
190.258
 21
3.05925
 31
0.0
  0
LINE
  8
0
 62
     0
 10
190.258
 20
3.05925
 30
0.0
 11
190.599
 21
3.401
 31
0.0
  0
LINE
  8
0
 62
     0
 10
190.599
 20
3.401
 30
0.0
 11
190.821
 21
3.83371
 31
0.0
  0
LINE
  8
0
 62
     0
 10
190.821
 20
3.83371
 30
0.0
 11
190.897
 21
4.3119
 31
0.0
  0
LINE
  8
0
 62
     0
 10
190.897
 20
4.3119
 30
0.0
 11
190.821
 21
4.79143
 31
0.0
  0
LINE
  8
0
 62
     0
 10
190.821
 20
4.79143
 30
0.0
 11
190.599
 21
5.22415
 31
0.0
  0
LINE
  8
0
 62
     0
 10
190.599
 20
5.22415
 30
0.0
 11
190.258
 21
5.56588
 31
0.0
  0
LINE
  8
0
 62
     0
 10
190.258
 20
5.56588
 30
0.0
 11
189.825
 21
5.78637
 31
0.0
  0
LINE
  8
0
 62
     0
 10
189.825
 20
5.78637
 30
0.0
 11
189.346
 21
5.86218
 31
0.0
  0
LINE
  8
0
 62
     0
 10
189.346
 20
5.86218
 30
0.0
 11
188.867
 21
5.78637
 31
0.0
  0
LINE
  8
0
 62
     0
 10
127.117
 20
5.78637
 30
0.0
 11
126.684
 21
5.56588
 31
0.0
  0
LINE
  8
0
 62
     0
 10
126.684
 20
5.56588
 30
0.0
 11
126.341
 21
5.22415
 31
0.0
  0
LINE
  8
0
 62
     0
 10
126.341
 20
5.22415
 30
0.0
 11
126.121
 21
4.79143
 31
0.0
  0
LINE
  8
0
 62
     0
 10
126.121
 20
4.79143
 30
0.0
 11
126.045
 21
4.3119
 31
0.0
  0
LINE
  8
0
 62
     0
 10
126.045
 20
4.3119
 30
0.0
 11
126.121
 21
3.83371
 31
0.0
  0
LINE
  8
0
 62
     0
 10
126.121
 20
3.83371
 30
0.0
 11
126.341
 21
3.401
 31
0.0
  0
LINE
  8
0
 62
     0
 10
126.341
 20
3.401
 30
0.0
 11
126.684
 21
3.05925
 31
0.0
  0
LINE
  8
0
 62
     0
 10
126.684
 20
3.05925
 30
0.0
 11
127.117
 21
2.83738
 31
0.0
  0
LINE
  8
0
 62
     0
 10
127.117
 20
2.83738
 30
0.0
 11
127.595
 21
2.76159
 31
0.0
  0
LINE
  8
0
 62
     0
 10
127.595
 20
2.76159
 30
0.0
 11
128.075
 21
2.83738
 31
0.0
  0
LINE
  8
0
 62
     0
 10
128.075
 20
2.83738
 30
0.0
 11
128.506
 21
3.05925
 31
0.0
  0
LINE
  8
0
 62
     0
 10
128.506
 20
3.05925
 30
0.0
 11
128.849
 21
3.401
 31
0.0
  0
LINE
  8
0
 62
     0
 10
128.849
 20
3.401
 30
0.0
 11
129.07
 21
3.83371
 31
0.0
  0
LINE
  8
0
 62
     0
 10
129.07
 20
3.83371
 30
0.0
 11
129.146
 21
4.3119
 31
0.0
  0
LINE
  8
0
 62
     0
 10
129.146
 20
4.3119
 30
0.0
 11
129.07
 21
4.79143
 31
0.0
  0
LINE
  8
0
 62
     0
 10
129.07
 20
4.79143
 30
0.0
 11
128.849
 21
5.22415
 31
0.0
  0
LINE
  8
0
 62
     0
 10
128.849
 20
5.22415
 30
0.0
 11
128.506
 21
5.56588
 31
0.0
  0
LINE
  8
0
 62
     0
 10
128.506
 20
5.56588
 30
0.0
 11
128.075
 21
5.78637
 31
0.0
  0
LINE
  8
0
 62
     0
 10
128.075
 20
5.78637
 30
0.0
 11
127.595
 21
5.86218
 31
0.0
  0
LINE
  8
0
 62
     0
 10
127.595
 20
5.86218
 30
0.0
 11
127.117
 21
5.78637
 31
0.0
  0
LINE
  8
0
 62
     0
 10
65.3658
 20
5.78637
 30
0.0
 11
64.9344
 21
5.56588
 31
0.0
  0
LINE
  8
0
 62
     0
 10
64.9344
 20
5.56588
 30
0.0
 11
64.5915
 21
5.22415
 31
0.0
  0
LINE
  8
0
 62
     0
 10
64.5915
 20
5.22415
 30
0.0
 11
64.371
 21
4.79143
 31
0.0
  0
LINE
  8
0
 62
     0
 10
64.371
 20
4.79143
 30
0.0
 11
64.2952
 21
4.3119
 31
0.0
  0
LINE
  8
0
 62
     0
 10
64.2952
 20
4.3119
 30
0.0
 11
64.371
 21
3.83371
 31
0.0
  0
LINE
  8
0
 62
     0
 10
64.371
 20
3.83371
 30
0.0
 11
64.5915
 21
3.401
 31
0.0
  0
LINE
  8
0
 62
     0
 10
64.5915
 20
3.401
 30
0.0
 11
64.9344
 21
3.05925
 31
0.0
  0
LINE
  8
0
 62
     0
 10
64.9344
 20
3.05925
 30
0.0
 11
65.3658
 21
2.83738
 31
0.0
  0
LINE
  8
0
 62
     0
 10
65.3658
 20
2.83738
 30
0.0
 11
65.8453
 21
2.76159
 31
0.0
  0
LINE
  8
0
 62
     0
 10
65.8453
 20
2.76159
 30
0.0
 11
66.325
 21
2.83738
 31
0.0
  0
LINE
  8
0
 62
     0
 10
66.325
 20
2.83738
 30
0.0
 11
66.7561
 21
3.05925
 31
0.0
  0
LINE
  8
0
 62
     0
 10
66.7561
 20
3.05925
 30
0.0
 11
67.0994
 21
3.401
 31
0.0
  0
LINE
  8
0
 62
     0
 10
67.0994
 20
3.401
 30
0.0
 11
67.3199
 21
3.83371
 31
0.0
  0
LINE
  8
0
 62
     0
 10
67.3199
 20
3.83371
 30
0.0
 11
67.3957
 21
4.3119
 31
0.0
  0
LINE
  8
0
 62
     0
 10
67.3957
 20
4.3119
 30
0.0
 11
67.3199
 21
4.79143
 31
0.0
  0
LINE
  8
0
 62
     0
 10
67.3199
 20
4.79143
 30
0.0
 11
67.0994
 21
5.22415
 31
0.0
  0
LINE
  8
0
 62
     0
 10
67.0994
 20
5.22415
 30
0.0
 11
66.7561
 21
5.56588
 31
0.0
  0
LINE
  8
0
 62
     0
 10
66.7561
 20
5.56588
 30
0.0
 11
66.325
 21
5.78637
 31
0.0
  0
LINE
  8
0
 62
     0
 10
66.325
 20
5.78637
 30
0.0
 11
65.8453
 21
5.86218
 31
0.0
  0
LINE
  8
0
 62
     0
 10
65.8453
 20
5.86218
 30
0.0
 11
65.3658
 21
5.78637
 31
0.0
  0
LINE
  8
0
 62
     0
 10
3.61597
 20
5.78637
 30
0.0
 11
3.18189
 21
5.56588
 31
0.0
  0
LINE
  8
0
 62
     0
 10
3.18189
 20
5.56588
 30
0.0
 11
2.84152
 21
5.22415
 31
0.0
  0
LINE
  8
0
 62
     0
 10
2.84152
 20
5.22415
 30
0.0
 11
2.62103
 21
4.79143
 31
0.0
  0
LINE
  8
0
 62
     0
 10
2.62103
 20
4.79143
 30
0.0
 11
2.54524
 21
4.3119
 31
0.0
  0
LINE
  8
0
 62
     0
 10
2.54524
 20
4.3119
 30
0.0
 11
2.62103
 21
3.83371
 31
0.0
  0
LINE
  8
0
 62
     0
 10
2.62103
 20
3.83371
 30
0.0
 11
2.84152
 21
3.401
 31
0.0
  0
LINE
  8
0
 62
     0
 10
2.84152
 20
3.401
 30
0.0
 11
3.18189
 21
3.05925
 31
0.0
  0
LINE
  8
0
 62
     0
 10
3.18189
 20
3.05925
 30
0.0
 11
3.61597
 21
2.83738
 31
0.0
  0
LINE
  8
0
 62
     0
 10
3.61597
 20
2.83738
 30
0.0
 11
4.09554
 21
2.76159
 31
0.0
  0
LINE
  8
0
 62
     0
 10
4.09554
 20
2.76159
 30
0.0
 11
4.57369
 21
2.83738
 31
0.0
  0
LINE
  8
0
 62
     0
 10
4.57369
 20
2.83738
 30
0.0
 11
5.00641
 21
3.05925
 31
0.0
  0
LINE
  8
0
 62
     0
 10
5.00641
 20
3.05925
 30
0.0
 11
5.34818
 21
3.401
 31
0.0
  0
LINE
  8
0
 62
     0
 10
5.34818
 20
3.401
 30
0.0
 11
5.57004
 21
3.83371
 31
0.0
  0
LINE
  8
0
 62
     0
 10
5.57004
 20
3.83371
 30
0.0
 11
5.64582
 21
4.3119
 31
0.0
  0
LINE
  8
0
 62
     0
 10
5.64582
 20
4.3119
 30
0.0
 11
5.57004
 21
4.79143
 31
0.0
  0
LINE
  8
0
 62
     0
 10
5.57004
 20
4.79143
 30
0.0
 11
5.34818
 21
5.22415
 31
0.0
  0
LINE
  8
0
 62
     0
 10
5.34818
 20
5.22415
 30
0.0
 11
5.00641
 21
5.56588
 31
0.0
  0
LINE
  8
0
 62
     0
 10
5.00641
 20
5.56588
 30
0.0
 11
4.57369
 21
5.78637
 31
0.0
  0
LINE
  8
0
 62
     0
 10
4.57369
 20
5.78637
 30
0.0
 11
4.09554
 21
5.86218
 31
0.0
  0
LINE
  8
0
 62
     0
 10
4.09554
 20
5.86218
 30
0.0
 11
3.61597
 21
5.78637
 31
0.0
  0
LINE
  8
0
 62
     0
 10
188.867
 20
64.0249
 30
0.0
 11
188.434
 21
63.803
 31
0.0
  0
LINE
  8
0
 62
     0
 10
188.434
 20
63.803
 30
0.0
 11
188.093
 21
63.4615
 31
0.0
  0
LINE
  8
0
 62
     0
 10
188.093
 20
63.4615
 30
0.0
 11
187.872
 21
63.0287
 31
0.0
  0
LINE
  8
0
 62
     0
 10
187.872
 20
63.0287
 30
0.0
 11
187.796
 21
62.5507
 31
0.0
  0
LINE
  8
0
 62
     0
 10
187.796
 20
62.5507
 30
0.0
 11
187.872
 21
62.0723
 31
0.0
  0
LINE
  8
0
 62
     0
 10
187.872
 20
62.0723
 30
0.0
 11
188.093
 21
61.6384
 31
0.0
  0
LINE
  8
0
 62
     0
 10
188.093
 20
61.6384
 30
0.0
 11
188.434
 21
61.2965
 31
0.0
  0
LINE
  8
0
 62
     0
 10
188.434
 20
61.2965
 30
0.0
 11
188.867
 21
61.0761
 31
0.0
  0
LINE
  8
0
 62
     0
 10
188.867
 20
61.0761
 30
0.0
 11
189.346
 21
61.0002
 31
0.0
  0
LINE
  8
0
 62
     0
 10
189.346
 20
61.0002
 30
0.0
 11
189.825
 21
61.0761
 31
0.0
  0
LINE
  8
0
 62
     0
 10
189.825
 20
61.0761
 30
0.0
 11
190.258
 21
61.2965
 31
0.0
  0
LINE
  8
0
 62
     0
 10
190.258
 20
61.2965
 30
0.0
 11
190.599
 21
61.6384
 31
0.0
  0
LINE
  8
0
 62
     0
 10
190.599
 20
61.6384
 30
0.0
 11
190.821
 21
62.0723
 31
0.0
  0
LINE
  8
0
 62
     0
 10
190.821
 20
62.0723
 30
0.0
 11
190.897
 21
62.5507
 31
0.0
  0
LINE
  8
0
 62
     0
 10
190.897
 20
62.5507
 30
0.0
 11
190.821
 21
63.0287
 31
0.0
  0
LINE
  8
0
 62
     0
 10
190.821
 20
63.0287
 30
0.0
 11
190.599
 21
63.4615
 31
0.0
  0
LINE
  8
0
 62
     0
 10
190.599
 20
63.4615
 30
0.0
 11
190.258
 21
63.803
 31
0.0
  0
LINE
  8
0
 62
     0
 10
190.258
 20
63.803
 30
0.0
 11
189.825
 21
64.0249
 31
0.0
  0
LINE
  8
0
 62
     0
 10
189.825
 20
64.0249
 30
0.0
 11
189.346
 21
64.0994
 31
0.0
  0
LINE
  8
0
 62
     0
 10
189.346
 20
64.0994
 30
0.0
 11
188.867
 21
64.0249
 31
0.0
  0
LINE
  8
0
 62
     0
 10
3.61597
 20
64.0249
 30
0.0
 11
3.18189
 21
63.803
 31
0.0
  0
LINE
  8
0
 62
     0
 10
3.18189
 20
63.803
 30
0.0
 11
2.84152
 21
63.4615
 31
0.0
  0
LINE
  8
0
 62
     0
 10
2.84152
 20
63.4615
 30
0.0
 11
2.62103
 21
63.0287
 31
0.0
  0
LINE
  8
0
 62
     0
 10
2.62103
 20
63.0287
 30
0.0
 11
2.54524
 21
62.5507
 31
0.0
  0
LINE
  8
0
 62
     0
 10
2.54524
 20
62.5507
 30
0.0
 11
2.62103
 21
62.0723
 31
0.0
  0
LINE
  8
0
 62
     0
 10
2.62103
 20
62.0723
 30
0.0
 11
2.84152
 21
61.6384
 31
0.0
  0
LINE
  8
0
 62
     0
 10
2.84152
 20
61.6384
 30
0.0
 11
3.18189
 21
61.2965
 31
0.0
  0
LINE
  8
0
 62
     0
 10
3.18189
 20
61.2965
 30
0.0
 11
3.61597
 21
61.0761
 31
0.0
  0
LINE
  8
0
 62
     0
 10
3.61597
 20
61.0761
 30
0.0
 11
4.09554
 21
61.0002
 31
0.0
  0
LINE
  8
0
 62
     0
 10
4.09554
 20
61.0002
 30
0.0
 11
4.57369
 21
61.0761
 31
0.0
  0
LINE
  8
0
 62
     0
 10
4.57369
 20
61.0761
 30
0.0
 11
5.00641
 21
61.2965
 31
0.0
  0
LINE
  8
0
 62
     0
 10
5.00641
 20
61.2965
 30
0.0
 11
5.34818
 21
61.6384
 31
0.0
  0
LINE
  8
0
 62
     0
 10
5.34818
 20
61.6384
 30
0.0
 11
5.57004
 21
62.0723
 31
0.0
  0
LINE
  8
0
 62
     0
 10
5.57004
 20
62.0723
 30
0.0
 11
5.64582
 21
62.5507
 31
0.0
  0
LINE
  8
0
 62
     0
 10
5.64582
 20
62.5507
 30
0.0
 11
5.57004
 21
63.0287
 31
0.0
  0
LINE
  8
0
 62
     0
 10
5.57004
 20
63.0287
 30
0.0
 11
5.34818
 21
63.4615
 31
0.0
  0
LINE
  8
0
 62
     0
 10
5.34818
 20
63.4615
 30
0.0
 11
5.00641
 21
63.803
 31
0.0
  0
LINE
  8
0
 62
     0
 10
5.00641
 20
63.803
 30
0.0
 11
4.57369
 21
64.0249
 31
0.0
  0
LINE
  8
0
 62
     0
 10
4.57369
 20
64.0249
 30
0.0
 11
4.09554
 21
64.0994
 31
0.0
  0
LINE
  8
0
 62
     0
 10
4.09554
 20
64.0994
 30
0.0
 11
3.61597
 21
64.0249
 31
0.0
  0
LINE
  8
0
 62
     0
 10
65.3658
 20
122.262
 30
0.0
 11
64.9344
 21
122.042
 31
0.0
  0
LINE
  8
0
 62
     0
 10
64.9344
 20
122.042
 30
0.0
 11
64.5915
 21
121.701
 31
0.0
  0
LINE
  8
0
 62
     0
 10
64.5915
 20
121.701
 30
0.0
 11
64.371
 21
121.267
 31
0.0
  0
LINE
  8
0
 62
     0
 10
64.371
 20
121.267
 30
0.0
 11
64.2952
 21
120.788
 31
0.0
  0
LINE
  8
0
 62
     0
 10
64.2952
 20
120.788
 30
0.0
 11
64.371
 21
120.31
 31
0.0
  0
LINE
  8
0
 62
     0
 10
64.371
 20
120.31
 30
0.0
 11
64.5915
 21
119.877
 31
0.0
  0
LINE
  8
0
 62
     0
 10
64.5915
 20
119.877
 30
0.0
 11
64.9344
 21
119.535
 31
0.0
  0
LINE
  8
0
 62
     0
 10
64.9344
 20
119.535
 30
0.0
 11
65.3658
 21
119.313
 31
0.0
  0
LINE
  8
0
 62
     0
 10
65.3658
 20
119.313
 30
0.0
 11
65.8453
 21
119.237
 31
0.0
  0
LINE
  8
0
 62
     0
 10
65.8453
 20
119.237
 30
0.0
 11
66.325
 21
119.313
 31
0.0
  0
LINE
  8
0
 62
     0
 10
66.325
 20
119.313
 30
0.0
 11
66.7561
 21
119.535
 31
0.0
  0
LINE
  8
0
 62
     0
 10
66.7561
 20
119.535
 30
0.0
 11
67.0994
 21
119.877
 31
0.0
  0
LINE
  8
0
 62
     0
 10
67.0994
 20
119.877
 30
0.0
 11
67.3199
 21
120.31
 31
0.0
  0
LINE
  8
0
 62
     0
 10
67.3199
 20
120.31
 30
0.0
 11
67.3957
 21
120.788
 31
0.0
  0
LINE
  8
0
 62
     0
 10
67.3957
 20
120.788
 30
0.0
 11
67.3199
 21
121.267
 31
0.0
  0
LINE
  8
0
 62
     0
 10
67.3199
 20
121.267
 30
0.0
 11
67.0994
 21
121.701
 31
0.0
  0
LINE
  8
0
 62
     0
 10
67.0994
 20
121.701
 30
0.0
 11
66.7561
 21
122.042
 31
0.0
  0
LINE
  8
0
 62
     0
 10
66.7561
 20
122.042
 30
0.0
 11
66.325
 21
122.262
 31
0.0
  0
LINE
  8
0
 62
     0
 10
66.325
 20
122.262
 30
0.0
 11
65.8453
 21
122.338
 31
0.0
  0
LINE
  8
0
 62
     0
 10
65.8453
 20
122.338
 30
0.0
 11
65.3658
 21
122.262
 31
0.0
  0
LINE
  8
0
 62
     0
 10
127.117
 20
122.262
 30
0.0
 11
126.684
 21
122.042
 31
0.0
  0
LINE
  8
0
 62
     0
 10
126.684
 20
122.042
 30
0.0
 11
126.341
 21
121.701
 31
0.0
  0
LINE
  8
0
 62
     0
 10
126.341
 20
121.701
 30
0.0
 11
126.121
 21
121.267
 31
0.0
  0
LINE
  8
0
 62
     0
 10
126.121
 20
121.267
 30
0.0
 11
126.045
 21
120.788
 31
0.0
  0
LINE
  8
0
 62
     0
 10
126.045
 20
120.788
 30
0.0
 11
126.121
 21
120.31
 31
0.0
  0
LINE
  8
0
 62
     0
 10
126.121
 20
120.31
 30
0.0
 11
126.341
 21
119.877
 31
0.0
  0
LINE
  8
0
 62
     0
 10
126.341
 20
119.877
 30
0.0
 11
126.684
 21
119.535
 31
0.0
  0
LINE
  8
0
 62
     0
 10
126.684
 20
119.535
 30
0.0
 11
127.117
 21
119.313
 31
0.0
  0
LINE
  8
0
 62
     0
 10
127.117
 20
119.313
 30
0.0
 11
127.595
 21
119.237
 31
0.0
  0
LINE
  8
0
 62
     0
 10
127.595
 20
119.237
 30
0.0
 11
128.075
 21
119.313
 31
0.0
  0
LINE
  8
0
 62
     0
 10
128.075
 20
119.313
 30
0.0
 11
128.506
 21
119.535
 31
0.0
  0
LINE
  8
0
 62
     0
 10
128.506
 20
119.535
 30
0.0
 11
128.849
 21
119.877
 31
0.0
  0
LINE
  8
0
 62
     0
 10
128.849
 20
119.877
 30
0.0
 11
129.07
 21
120.31
 31
0.0
  0
LINE
  8
0
 62
     0
 10
129.07
 20
120.31
 30
0.0
 11
129.146
 21
120.788
 31
0.0
  0
LINE
  8
0
 62
     0
 10
129.146
 20
120.788
 30
0.0
 11
129.07
 21
121.267
 31
0.0
  0
LINE
  8
0
 62
     0
 10
129.07
 20
121.267
 30
0.0
 11
128.849
 21
121.701
 31
0.0
  0
LINE
  8
0
 62
     0
 10
128.849
 20
121.701
 30
0.0
 11
128.506
 21
122.042
 31
0.0
  0
LINE
  8
0
 62
     0
 10
128.506
 20
122.042
 30
0.0
 11
128.075
 21
122.262
 31
0.0
  0
LINE
  8
0
 62
     0
 10
128.075
 20
122.262
 30
0.0
 11
127.595
 21
122.338
 31
0.0
  0
LINE
  8
0
 62
     0
 10
127.595
 20
122.338
 30
0.0
 11
127.117
 21
122.262
 31
0.0
  0
LINE
  8
0
 62
     0
 10
188.867
 20
122.262
 30
0.0
 11
188.434
 21
122.042
 31
0.0
  0
LINE
  8
0
 62
     0
 10
188.434
 20
122.042
 30
0.0
 11
188.093
 21
121.701
 31
0.0
  0
LINE
  8
0
 62
     0
 10
188.093
 20
121.701
 30
0.0
 11
187.872
 21
121.267
 31
0.0
  0
LINE
  8
0
 62
     0
 10
187.872
 20
121.267
 30
0.0
 11
187.796
 21
120.788
 31
0.0
  0
LINE
  8
0
 62
     0
 10
187.796
 20
120.788
 30
0.0
 11
187.872
 21
120.31
 31
0.0
  0
LINE
  8
0
 62
     0
 10
187.872
 20
120.31
 30
0.0
 11
188.093
 21
119.877
 31
0.0
  0
LINE
  8
0
 62
     0
 10
188.093
 20
119.877
 30
0.0
 11
188.434
 21
119.535
 31
0.0
  0
LINE
  8
0
 62
     0
 10
188.434
 20
119.535
 30
0.0
 11
188.867
 21
119.313
 31
0.0
  0
LINE
  8
0
 62
     0
 10
188.867
 20
119.313
 30
0.0
 11
189.346
 21
119.237
 31
0.0
  0
LINE
  8
0
 62
     0
 10
189.346
 20
119.237
 30
0.0
 11
189.825
 21
119.313
 31
0.0
  0
LINE
  8
0
 62
     0
 10
189.825
 20
119.313
 30
0.0
 11
190.258
 21
119.535
 31
0.0
  0
LINE
  8
0
 62
     0
 10
190.258
 20
119.535
 30
0.0
 11
190.599
 21
119.877
 31
0.0
  0
LINE
  8
0
 62
     0
 10
190.599
 20
119.877
 30
0.0
 11
190.821
 21
120.31
 31
0.0
  0
LINE
  8
0
 62
     0
 10
190.821
 20
120.31
 30
0.0
 11
190.897
 21
120.788
 31
0.0
  0
LINE
  8
0
 62
     0
 10
190.897
 20
120.788
 30
0.0
 11
190.821
 21
121.267
 31
0.0
  0
LINE
  8
0
 62
     0
 10
190.821
 20
121.267
 30
0.0
 11
190.599
 21
121.701
 31
0.0
  0
LINE
  8
0
 62
     0
 10
190.599
 20
121.701
 30
0.0
 11
190.258
 21
122.042
 31
0.0
  0
LINE
  8
0
 62
     0
 10
190.258
 20
122.042
 30
0.0
 11
189.825
 21
122.262
 31
0.0
  0
LINE
  8
0
 62
     0
 10
189.825
 20
122.262
 30
0.0
 11
189.346
 21
122.338
 31
0.0
  0
LINE
  8
0
 62
     0
 10
189.346
 20
122.338
 30
0.0
 11
188.867
 21
122.262
 31
0.0
  0
LINE
  8
0
 62
     0
 10
3.61597
 20
122.262
 30
0.0
 11
3.18189
 21
122.042
 31
0.0
  0
LINE
  8
0
 62
     0
 10
3.18189
 20
122.042
 30
0.0
 11
2.84152
 21
121.701
 31
0.0
  0
LINE
  8
0
 62
     0
 10
2.84152
 20
121.701
 30
0.0
 11
2.62103
 21
121.267
 31
0.0
  0
LINE
  8
0
 62
     0
 10
2.62103
 20
121.267
 30
0.0
 11
2.54524
 21
120.788
 31
0.0
  0
LINE
  8
0
 62
     0
 10
2.54524
 20
120.788
 30
0.0
 11
2.62103
 21
120.31
 31
0.0
  0
LINE
  8
0
 62
     0
 10
2.62103
 20
120.31
 30
0.0
 11
2.84152
 21
119.877
 31
0.0
  0
LINE
  8
0
 62
     0
 10
2.84152
 20
119.877
 30
0.0
 11
3.18189
 21
119.535
 31
0.0
  0
LINE
  8
0
 62
     0
 10
3.18189
 20
119.535
 30
0.0
 11
3.61597
 21
119.313
 31
0.0
  0
LINE
  8
0
 62
     0
 10
3.61597
 20
119.313
 30
0.0
 11
4.09554
 21
119.237
 31
0.0
  0
LINE
  8
0
 62
     0
 10
4.09554
 20
119.237
 30
0.0
 11
4.57369
 21
119.313
 31
0.0
  0
LINE
  8
0
 62
     0
 10
4.57369
 20
119.313
 30
0.0
 11
5.00641
 21
119.535
 31
0.0
  0
LINE
  8
0
 62
     0
 10
5.00641
 20
119.535
 30
0.0
 11
5.34818
 21
119.877
 31
0.0
  0
LINE
  8
0
 62
     0
 10
5.34818
 20
119.877
 30
0.0
 11
5.57004
 21
120.31
 31
0.0
  0
LINE
  8
0
 62
     0
 10
5.57004
 20
120.31
 30
0.0
 11
5.64582
 21
120.788
 31
0.0
  0
LINE
  8
0
 62
     0
 10
5.64582
 20
120.788
 30
0.0
 11
5.57004
 21
121.267
 31
0.0
  0
LINE
  8
0
 62
     0
 10
5.57004
 20
121.267
 30
0.0
 11
5.34818
 21
121.701
 31
0.0
  0
LINE
  8
0
 62
     0
 10
5.34818
 20
121.701
 30
0.0
 11
5.00641
 21
122.042
 31
0.0
  0
LINE
  8
0
 62
     0
 10
5.00641
 20
122.042
 30
0.0
 11
4.57369
 21
122.262
 31
0.0
  0
LINE
  8
0
 62
     0
 10
4.57369
 20
122.262
 30
0.0
 11
4.09554
 21
122.338
 31
0.0
  0
LINE
  8
0
 62
     0
 10
4.09554
 20
122.338
 30
0.0
 11
3.61597
 21
122.262
 31
0.0
  0
ENDSEC
  0
EOF
